<svg xmlns="http://www.w3.org/2000/svg" width="41" height="34" viewBox="0 0 41 34" fill="none"><mask id="mask0_401_623" style="mask-type:luminance" maskUnits="userSpaceOnUse" x="14" y="0" width="20" height="27"><path d="M14.115 2.38419e-07H33.592V26.3571H14.115V2.38419e-07Z" fill="white"></path></mask><g mask="url(#mask0_401_623)"><path fill-rule="evenodd" clip-rule="evenodd" d="M23.1024 3.76478C22.9276 4.41113 22.6912 5.02207 22.4405 5.59936C22.1856 6.18197 21.9122 6.74155 21.5792 7.25863C21.2441 7.77572 20.8885 8.27686 20.5185 8.74968C20.1423 9.22957 19.7579 9.69353 19.3468 10.1345C18.5163 11.0199 17.581 11.8079 16.5182 12.4861C16.2572 12.6544 15.9838 12.8191 15.7124 12.9855C15.4329 13.1573 15.1327 13.2972 14.8038 13.3999C15.5233 13.5628 16.1749 13.8249 16.7896 14.094C17.4104 14.3668 17.9942 14.6607 18.5204 15.0113C19.3118 15.5391 19.9984 16.1482 20.6068 16.8211C21.6244 17.9438 22.4733 19.2365 22.977 20.7825C23.3799 22.0168 23.5998 23.3998 23.8403 24.8288C24.0336 23.3325 24.4097 21.9601 24.901 20.7134C25.1477 20.0901 25.417 19.4898 25.7377 18.9267C26.0604 18.3635 26.3955 17.8199 26.7901 17.3223C27.5836 16.3235 28.5066 15.4576 29.5591 14.7068C30.6156 13.9524 31.8058 13.3379 33.0618 12.7376C32.3506 12.5534 31.664 12.3321 31.0062 12.0948C30.3361 11.8557 29.6721 11.6379 29.0554 11.3634C27.8406 10.8233 26.7984 10.1079 25.9885 9.19238C25.1683 8.26624 24.6071 7.20728 24.2021 5.92874C23.8074 4.67676 23.6574 3.23884 23.5423 1.71061C23.5423 1.70707 23.5402 1.70176 23.534 1.70353C23.4354 2.42072 23.2812 3.10957 23.1024 3.76478ZM23.534 -1.23622e-05C23.7787 -0.0124082 23.7931 0.207175 23.8074 0.432071C23.8568 1.12978 23.8876 1.92488 23.9678 2.58186C24.0171 2.96968 24.0767 3.3628 24.1302 3.75061C24.1836 4.13842 24.2432 4.52447 24.3193 4.89103C24.4652 5.60645 24.7057 6.2953 24.9853 6.93103C25.2649 7.56676 25.6041 8.14582 26.0111 8.66468C26.414 9.17645 26.9073 9.63332 27.4582 10.0406C28.0153 10.4497 28.6238 10.8109 29.2918 11.0872C29.6413 11.2306 29.9784 11.3723 30.3422 11.5016C30.6876 11.6255 31.0535 11.7495 31.4256 11.8805C31.7545 11.9956 32.1389 12.132 32.5356 12.2435C32.8254 12.325 33.1029 12.3817 33.4031 12.4826C33.5141 12.5216 33.5942 12.5729 33.5922 12.665C33.5963 12.7624 33.4976 12.8208 33.4257 12.8686C33.3496 12.9182 33.2571 12.9589 33.1811 12.9944C32.6713 13.2281 32.1841 13.4973 31.701 13.7594C31.0597 14.1064 30.4615 14.4996 29.8797 14.9122C29.3062 15.3177 28.7553 15.7622 28.2558 16.2421C26.5085 17.919 25.3307 20.0919 24.6441 22.7251C24.4467 23.4865 24.2946 24.2232 24.2021 25.0945C24.1692 25.4079 24.1425 25.7178 24.1137 26.0507C24.0973 26.2349 24.0829 26.3695 23.8753 26.3358C23.7006 26.3075 23.6389 26.0631 23.6101 25.8967C23.3778 24.5384 23.2113 23.1359 22.8865 21.8662C22.6995 21.1296 22.4713 20.446 22.1856 19.8103C21.8978 19.171 21.5401 18.5813 21.1434 18.0465C20.7405 17.5047 20.2985 16.9964 19.8195 16.5219C19.579 16.2846 19.318 16.0632 19.0507 15.8454C18.7876 15.6294 18.5122 15.4169 18.2223 15.2274C17.6344 14.8449 17.0054 14.5314 16.2921 14.218C15.9653 14.0746 15.5911 13.9241 15.217 13.8019C14.9436 13.7133 14.6415 13.646 14.3413 13.5539C14.2591 13.5292 14.1132 13.5044 14.1255 13.3946C14.1337 13.3113 14.2406 13.237 14.3002 13.2069C14.3783 13.1697 14.4873 13.136 14.5716 13.1112C14.7319 13.0652 14.9745 12.9837 15.1142 12.92C15.4514 12.7624 15.7576 12.5463 16.0249 12.3834C16.6601 11.9956 17.1842 11.6291 17.7084 11.1846C18.2285 10.7401 18.7218 10.285 19.1761 9.79447C19.6243 9.30926 20.0354 8.78509 20.4445 8.23613C20.8494 7.69426 21.24 7.1453 21.5689 6.54145C22.2123 5.3603 22.7241 3.93832 23.0469 2.48447C23.1702 1.93197 23.2565 1.35822 23.31 0.70655C23.3182 0.596758 23.3223 0.486967 23.3305 0.391342C23.347 0.189467 23.3203 0.0336335 23.534 -1.23622e-05Z" fill="white"></path></g><mask id="mask1_401_623" style="mask-type:luminance" maskUnits="userSpaceOnUse" x="7" y="23" width="11" height="11"><path d="M7.54529 23.1466H17.1944V34H7.54529V23.1466Z" fill="white"></path></mask><g mask="url(#mask1_401_623)"><path fill-rule="evenodd" clip-rule="evenodd" d="M12.2629 25.8754C12.0614 26.3659 11.8743 26.8352 11.5681 27.2266C11.27 27.6126 10.8959 27.9473 10.4704 28.22C10.0407 28.4963 9.52683 28.6981 8.91426 28.8115C9.56383 28.8628 10.0983 28.9514 10.5485 29.1621C10.9863 29.3693 11.3419 29.6597 11.6441 29.9696C11.9545 30.2901 12.1868 30.6708 12.3554 31.1065C12.4849 31.4447 12.5424 31.8095 12.6041 32.2008C12.6246 32.3266 12.6288 32.4576 12.6699 32.5869C12.7727 31.5474 13.1344 30.7611 13.7491 30.175C14.0554 29.8828 14.4151 29.6473 14.818 29.4383C15.0174 29.3339 15.2168 29.2241 15.4388 29.1408C15.6649 29.0576 15.9054 29.0009 16.1459 28.9213C15.6012 28.776 15.1099 28.5618 14.6905 28.3068C14.2691 28.0482 13.8909 27.7578 13.6134 27.37C13.3359 26.9875 13.1612 26.5111 13.0358 26.01C12.9063 25.5035 12.8282 24.9475 12.7912 24.3578C12.7912 24.3525 12.7891 24.3472 12.7829 24.349C12.6514 24.8784 12.4623 25.3831 12.2629 25.8754ZM12.7953 33.9504C12.5383 34.1133 12.4273 33.8371 12.4068 33.6086C12.3903 33.4227 12.3903 33.2067 12.378 33.0438C12.3533 32.6719 12.2814 32.3336 12.2238 32.0025C12.1621 31.6466 12.0758 31.3384 11.9463 31.0586C11.8147 30.7735 11.6482 30.5345 11.4488 30.3078C11.0603 29.8669 10.5773 29.4649 9.88451 29.286C9.54122 29.1957 9.12188 29.1656 8.68609 29.1249C8.51958 29.1107 8.25852 29.1072 8.04268 29.0824C7.81656 29.0576 7.574 29.0629 7.54727 28.8982C7.537 28.8309 7.574 28.8026 7.611 28.7636C7.69733 28.6645 7.70761 28.6663 7.88028 28.6521C8.68403 28.5883 9.38705 28.4573 9.94001 28.1633C10.5197 27.8552 10.9658 27.4461 11.3276 26.9308C11.5105 26.6723 11.638 26.3854 11.7633 26.0826C11.8887 25.778 12.0244 25.4734 12.1292 25.1742C12.2999 24.696 12.4191 24.2126 12.5712 23.715C12.5897 23.6566 12.6164 23.568 12.6431 23.4742C12.6863 23.3236 12.6822 23.182 12.8549 23.159C12.9494 23.1466 13.0645 23.1696 13.0995 23.2209C13.1344 23.2758 13.1118 23.3963 13.1057 23.4936C13.0872 23.7628 13.1016 24.1099 13.1221 24.3454C13.1529 24.6978 13.1838 25.0679 13.2496 25.3849C13.3791 25.9976 13.5805 26.6528 13.9012 27.1309C14.2301 27.6179 14.7317 27.965 15.3011 28.243C15.5806 28.3811 15.8664 28.4963 16.2364 28.5972C16.3864 28.6379 16.5591 28.6751 16.7667 28.7211C16.9271 28.7583 17.1737 28.769 17.1819 28.9443C17.1881 29.1054 17.0113 29.1267 16.7975 29.1515C16.2775 29.2099 15.7739 29.3781 15.3915 29.5393C14.8262 29.7801 14.3616 30.0918 13.9814 30.4636C13.7799 30.6584 13.6093 30.8585 13.4695 31.0994C13.0913 31.7475 12.9309 32.6276 12.9207 33.598C12.9186 33.7556 12.9577 33.9256 12.7953 33.9504Z" fill="white"></path></g></svg>