<svg xmlns="http://www.w3.org/2000/svg" width="42" height="42" viewBox="0 0 42 42" fill="none"><g clip-path="url(#clip0_623_1065)"><mask id="mask0_623_1065" style="mask-type:luminance" maskUnits="userSpaceOnUse" x="0" y="11" width="42" height="20"><path d="M0 11.1103H42V30.8H0V11.1103Z" fill="white"></path></mask><g mask="url(#mask0_623_1065)"><path d="M16.3255 16.4915C16.0739 16.5747 15.8223 16.6556 15.5708 16.7387C15.538 16.7343 15.503 16.7387 15.4658 16.7562C15.4417 16.7694 15.4155 16.7825 15.3914 16.7956C15.3477 16.8109 15.3039 16.824 15.2602 16.8394C15.1858 16.7759 15.0567 16.7628 14.9845 16.8678C14.967 16.8918 14.9495 16.9181 14.932 16.9444C14.4355 17.1062 13.9367 17.2659 13.4402 17.4278C13.4358 17.43 13.4314 17.4322 13.4248 17.4344C13.3636 17.3381 13.2105 17.3053 13.1317 17.4322C13.1055 17.4737 13.0814 17.5131 13.0552 17.5547C12.3508 17.7844 11.6464 18.0118 10.9442 18.2503C10.5264 17.4387 10.0736 16.6447 9.63828 15.8419C9.46765 15.5269 9.26421 15.2293 9.0739 14.9275C8.84421 14.5556 8.61234 14.1859 8.38265 13.814C8.37828 13.8031 8.37609 13.7922 8.37171 13.7812C8.36078 13.7484 8.3389 13.72 8.31046 13.7003C8.24046 13.5865 8.16828 13.4728 8.09828 13.359C8.0764 13.324 8.05453 13.289 8.03265 13.2518C7.93421 13.0943 7.73078 13.1775 7.7089 13.3393C7.57765 14.3697 7.41796 15.3978 7.31953 16.4303C7.22546 17.4387 7.1314 18.4493 7.01984 19.4556C7.00453 19.4665 6.98921 19.4797 6.97609 19.495C6.95421 19.5015 6.93015 19.5059 6.90828 19.5125C6.66328 19.5737 6.41828 19.6372 6.17328 19.6984C6.13609 19.6919 6.09453 19.7006 6.05515 19.7269C5.2064 19.9412 4.35765 20.1578 3.5089 20.3722C2.44359 20.6434 1.38265 20.9256 0.319526 21.2056C0.269214 21.2187 0.221088 21.2318 0.170776 21.245C0.000151057 21.2887 0.0110885 21.5294 0.170776 21.5775C0.490151 21.6759 0.809526 21.7744 1.1289 21.8728C1.1289 21.8947 1.12671 21.9165 1.12671 21.9406C1.12015 22.1353 1.41546 22.1725 1.46796 21.9865C1.46796 21.9822 1.46796 21.98 1.47015 21.9778C1.98203 22.1353 2.49609 22.295 3.00796 22.4547C3.3514 22.5619 3.69265 22.6669 4.0339 22.774C4.03828 22.7762 4.04484 22.7806 4.0514 22.7828C4.16078 22.8331 4.27015 22.8812 4.37953 22.9315C4.29203 23.0934 4.53046 23.2837 4.65734 23.1328C4.67265 23.1153 4.68796 23.0956 4.70328 23.0781C4.9439 23.1853 5.18234 23.2925 5.42296 23.4019C5.67234 23.5134 5.9239 23.6272 6.17546 23.7409C6.3089 23.8 6.42921 23.8306 6.57359 23.859C6.59328 23.8634 6.61296 23.8678 6.63265 23.8722C6.57578 24.9309 6.50359 25.9875 6.42921 27.0462C6.34828 28.1728 6.29796 29.3015 6.2389 30.4303C6.23671 30.485 6.23453 30.5397 6.23015 30.5944C6.2214 30.7606 6.47953 30.8372 6.5539 30.6819C6.81421 30.1415 7.07453 29.6012 7.33265 29.0609C7.52296 28.665 7.69578 28.2559 7.92109 27.8775C8.49421 26.9062 9.04546 25.9219 9.67984 24.99C9.71265 24.9397 9.74765 24.8915 9.78046 24.8412C10.6948 25.1781 11.6092 25.515 12.5236 25.854C13.5298 26.2281 14.5427 26.5847 15.5555 26.9478C15.6058 26.9653 15.6561 26.9828 15.7064 27.0025C15.9164 27.0769 16.0061 26.7422 15.7983 26.6678C15.5555 26.5803 15.3127 26.495 15.0698 26.4075C15.002 26.2784 14.9342 26.1515 14.8664 26.0225C14.862 26.0094 14.8577 25.994 14.8467 25.9809C14.8445 25.9765 14.8445 25.9743 14.8423 25.97C14.838 25.9612 14.8314 25.9547 14.827 25.9459C14.4464 25.2219 14.0636 24.5 13.6939 23.7715C13.2586 22.9162 12.8473 22.0478 12.423 21.1881C12.4252 21.1859 12.4273 21.1815 12.4295 21.1793C12.4886 21.0984 12.5498 21.0197 12.6111 20.9387C12.6155 20.9322 12.6177 20.93 12.622 20.9256C12.6242 20.9212 12.633 20.9147 12.6461 20.9015C13.1317 20.4093 13.5998 19.8997 14.0767 19.3987C14.8577 18.5784 15.6189 17.7384 16.3845 16.9028C16.4217 16.8612 16.4589 16.8218 16.4939 16.7825C16.6055 16.66 16.4983 16.4368 16.3255 16.4915ZM9.89203 18.6134C9.85921 18.6265 9.82421 18.6375 9.78921 18.6506C9.75421 18.5522 9.7214 18.4537 9.6864 18.3553C9.75421 18.4428 9.82421 18.5281 9.89203 18.6134ZM8.39359 17.7209C8.42203 17.85 8.44828 17.9812 8.47234 18.1103C8.4264 17.9528 8.37828 17.7931 8.33015 17.6356C8.29734 17.5284 8.26453 17.4212 8.2339 17.314C8.24046 17.2418 8.24921 17.1697 8.25578 17.0997C8.30171 17.3053 8.34765 17.5131 8.39359 17.7209ZM8.86828 18.3422C8.82234 18.0731 8.76765 17.8062 8.71078 17.5394C8.84421 17.9834 8.9164 18.4472 9.01265 18.9022C9.01265 18.9109 9.01484 18.9175 9.01703 18.924C9.00171 18.9306 8.9864 18.935 8.97109 18.9415C8.93609 18.7403 8.90328 18.5412 8.86828 18.3422ZM9.78703 20.7353C9.9489 20.6412 10.113 20.5472 10.2748 20.4509C10.0692 20.72 9.8614 20.989 9.65578 21.2603C9.6689 21.1269 9.68203 20.9934 9.69515 20.8622C9.72578 20.8206 9.7564 20.7768 9.78703 20.7353ZM9.17453 21.689C9.20296 21.7197 9.22921 21.7503 9.25546 21.7787C9.25546 21.7809 9.25546 21.7809 9.25546 21.7809C9.23578 21.805 9.21609 21.8312 9.1964 21.8553C9.18984 21.864 9.18328 21.8728 9.17671 21.8815C9.17453 21.8837 9.17453 21.8859 9.17015 21.8881C9.05859 22.0084 8.95359 22.1375 8.84859 22.2622C8.95796 22.0718 9.06734 21.8815 9.17453 21.689ZM10.4498 21.5097C10.4389 21.4987 10.428 21.4878 10.417 21.4812C10.4323 21.4397 10.4498 21.4003 10.4652 21.3609C10.533 21.2603 10.5986 21.1575 10.6664 21.0569C10.8108 20.8381 10.9705 20.6237 11.1039 20.3984C11.1061 20.394 11.1083 20.3897 11.1105 20.3853C11.117 20.3787 11.1214 20.3722 11.1258 20.3656C11.1389 20.3503 11.1542 20.3328 11.1673 20.3153C11.1695 20.3306 11.1739 20.3459 11.1761 20.3634C10.9333 20.7462 10.6927 21.1269 10.4498 21.5097ZM10.5352 19.8144C10.4848 19.8384 10.4367 19.8647 10.3886 19.8887C10.4017 19.8253 10.3689 19.7575 10.3142 19.7181C10.3186 19.7115 10.323 19.7028 10.3273 19.6962C10.3361 19.6809 10.3448 19.6678 10.3536 19.6525C10.4148 19.6284 10.4761 19.6065 10.5373 19.5825C10.4564 19.6481 10.4717 19.7509 10.5352 19.8144ZM8.82452 22.844C8.80484 22.8725 8.78734 22.9009 8.76765 22.9293C8.76765 22.9228 8.76765 22.9162 8.76765 22.9097C8.78734 22.8878 8.80484 22.8659 8.82452 22.844ZM9.41515 20.1994C9.37359 20.2278 9.33421 20.2562 9.29265 20.2847C9.26859 20.289 9.24234 20.2934 9.21609 20.3C9.2489 20.2431 9.28171 20.1862 9.31453 20.1315C9.3539 20.1075 9.39109 20.0856 9.42828 20.0637C9.4239 20.1097 9.41953 20.1534 9.41515 20.1994ZM8.0764 18.9962C8.07203 19.0269 8.06765 19.0575 8.06328 19.0881C8.06546 19.0553 8.06984 19.0225 8.07421 18.9897C8.07421 18.9919 8.07421 18.994 8.0764 18.9962ZM8.06765 23.7147C8.05015 23.7497 8.03484 23.7847 8.01734 23.8197C8.0064 23.8153 7.99765 23.8109 7.98671 23.8087C8.01296 23.7759 8.0414 23.7453 8.06765 23.7147ZM7.85328 24.1259C7.85765 24.1281 7.85984 24.1303 7.86421 24.1303C7.84453 24.174 7.82265 24.2156 7.80296 24.2594C7.81828 24.2156 7.83578 24.1719 7.85328 24.1259ZM10.6358 23.5834C10.7561 23.695 10.8742 23.8065 10.9923 23.9181C11.0055 23.9334 11.0164 23.9487 11.0273 23.9662C11.0361 23.9772 11.0448 23.9903 11.0558 24.0034C10.8852 23.9072 10.7167 23.8109 10.5461 23.7169C10.5767 23.6731 10.6052 23.6272 10.6358 23.5834ZM6.34609 22.6275C6.32859 22.6209 6.31109 22.6165 6.29578 22.6122C6.38984 22.4831 6.48609 22.354 6.58234 22.225C6.50359 22.3584 6.42484 22.494 6.34609 22.6275ZM9.35609 18.8059C9.32546 18.655 9.29484 18.5062 9.26421 18.3553C9.3189 18.4975 9.37359 18.6375 9.42828 18.7797C9.40421 18.7884 9.38015 18.7972 9.35609 18.8059ZM8.6014 25.2262C8.69546 24.9878 8.78953 24.7472 8.8814 24.5087C8.93828 24.5284 8.99515 24.5503 9.04984 24.5722C9.04984 24.5722 9.04984 24.5722 9.04984 24.5744C8.90109 24.7909 8.75234 25.0075 8.6014 25.2262ZM11.7558 22.8331C11.6705 22.6887 11.5852 22.5422 11.4998 22.3978C11.537 22.3518 11.572 22.3037 11.6092 22.2578C11.8761 22.6997 12.1452 23.1437 12.412 23.5856C12.2983 23.4587 12.178 23.3384 12.0577 23.2137C11.9877 23.1415 11.9198 23.0694 11.8498 22.9972C11.8192 22.9425 11.7864 22.8878 11.7558 22.8331ZM12.8255 19.7422C12.9305 19.5715 13.0333 19.4009 13.1383 19.2281C13.158 19.25 13.1798 19.2653 13.2061 19.274C13.0792 19.4994 12.9523 19.7225 12.797 19.9281C12.6614 20.1118 12.5258 20.2934 12.3902 20.475C12.5345 20.23 12.6789 19.985 12.8255 19.7422ZM8.19234 15.1768C8.18796 15.1681 8.18578 15.1593 8.1814 15.1506C8.17703 15.1375 8.17046 15.1265 8.16609 15.1178C8.16828 15.1047 8.17046 15.0915 8.17046 15.0806C8.18359 15.1134 8.19453 15.1462 8.20765 15.179C8.20109 15.179 8.19671 15.1768 8.19234 15.1768ZM8.17921 16.7453C8.13328 16.7278 8.08078 16.7256 8.03484 16.7409C8.03921 16.7103 8.0414 16.6818 8.04578 16.6534C8.05453 16.5725 8.00203 16.52 7.9364 16.4959C7.96265 16.334 7.99109 16.1743 8.01734 16.0125C8.06984 16.2575 8.12453 16.5003 8.17921 16.7453ZM5.97203 22.3628C5.94578 22.4109 5.91953 22.4569 5.89546 22.505C5.86265 22.4962 5.82984 22.4875 5.79921 22.4809C5.94359 22.2797 6.09015 22.0784 6.23453 21.8772C6.14703 22.039 6.05953 22.2009 5.97203 22.3628ZM7.01109 23.2662C7.03078 23.2487 7.0439 23.2247 7.05265 23.1984C7.19921 23.1984 7.26484 23.0059 7.17078 22.9075C7.18609 22.8878 7.19921 22.8681 7.21453 22.8484C7.25171 22.8856 7.31078 22.9031 7.36546 22.8987C7.36328 22.9162 7.36328 22.9359 7.36109 22.9534C7.30203 23.065 7.24515 23.1743 7.18609 23.2837C7.15984 23.3078 7.14015 23.3428 7.13359 23.3844C7.12046 23.4084 7.10734 23.4325 7.09421 23.4587C7.06359 23.4412 7.03296 23.4259 7.00453 23.4106C7.00671 23.3625 7.0089 23.3144 7.01109 23.2662ZM6.91265 20.3568C6.89296 20.3831 6.87546 20.4093 6.85578 20.4356C6.87546 20.3962 6.89734 20.359 6.91703 20.3218C6.91484 20.3328 6.91484 20.3437 6.91265 20.3568ZM4.85421 22.1659C4.79296 22.1419 4.72953 22.1178 4.66828 22.0937C4.88921 21.8597 5.11234 21.6256 5.33328 21.3893C5.17359 21.6475 5.0139 21.9056 4.85421 22.1659ZM7.38296 27.7572C7.38296 27.755 7.38515 27.755 7.38515 27.7528C7.50328 27.3853 7.62359 27.0178 7.74171 26.6503C7.7614 26.6787 7.78984 26.6984 7.82265 26.7115C7.84671 26.729 7.87734 26.74 7.90796 26.7422C7.73078 27.0878 7.5514 27.4334 7.3764 27.779C7.37859 27.7725 7.38078 27.7637 7.38296 27.7572ZM9.93578 23.975C9.93796 23.9772 9.94234 23.9772 9.94453 23.9794C9.91171 24.0319 9.87671 24.0822 9.8439 24.1325C9.87453 24.08 9.90515 24.0275 9.93578 23.975ZM11.4561 23.6906C11.4495 23.6775 11.443 23.6644 11.4364 23.6512C11.4408 23.6556 11.443 23.6578 11.4452 23.6622C11.4605 23.684 11.4736 23.7059 11.4867 23.7278C11.478 23.7147 11.467 23.7037 11.4561 23.6906ZM13.2914 17.8762C13.2936 17.8762 13.2936 17.874 13.2936 17.874C13.298 17.8719 13.3002 17.8719 13.2914 17.8762ZM5.48859 22.2228C5.46234 22.2731 5.4339 22.3234 5.40765 22.3737C5.37703 22.3628 5.34859 22.3519 5.32015 22.3409C5.42078 22.2206 5.5214 22.1003 5.61984 21.9822C5.57609 22.0609 5.53234 22.1418 5.48859 22.2228ZM4.35109 21.8772C4.32921 21.9034 4.30734 21.9318 4.28546 21.9603C4.27671 21.9581 4.26796 21.9559 4.2614 21.9537C4.30515 21.91 4.3489 21.8662 4.39265 21.8247C4.37953 21.8422 4.36421 21.8597 4.35109 21.8772ZM3.28796 21.7437C3.27703 21.7394 3.2639 21.7372 3.25296 21.735C3.29671 21.6956 3.34046 21.6584 3.38421 21.619C3.35359 21.6606 3.32078 21.7022 3.28796 21.7437ZM2.3714 21.5512C2.36046 21.549 2.34734 21.5469 2.3364 21.5447C2.35609 21.5315 2.37796 21.5162 2.39984 21.5031C2.39109 21.5184 2.38015 21.5359 2.3714 21.5512ZM10.2442 24.1587C10.5155 24.3206 10.7845 24.4825 11.0558 24.6444C10.7408 24.5459 10.428 24.4497 10.1152 24.3512C10.1567 24.2878 10.2005 24.2243 10.2442 24.1587ZM12.2655 24.4453C12.1167 24.2965 11.9592 24.1587 11.7973 24.0253C11.8805 24.0143 11.9548 23.9487 11.9592 23.8678C11.9636 23.8765 11.968 23.8853 11.9745 23.894C12.1102 24.1259 12.2545 24.3556 12.4011 24.5853C12.3552 24.5394 12.3092 24.4912 12.2655 24.4453ZM12.0445 21.6847C12.0467 21.6825 12.0489 21.6803 12.0511 21.6781C12.0577 21.6934 12.0642 21.7087 12.0708 21.7219C12.062 21.7109 12.0533 21.6978 12.0445 21.6847ZM13.2936 17.8719C13.3002 17.8609 13.3067 17.8478 13.3133 17.8347C13.3614 17.8194 13.4073 17.804 13.4533 17.7887C13.3986 17.815 13.3461 17.8434 13.2936 17.8719ZM12.3661 18.2481C12.3223 18.2656 12.2786 18.2831 12.2348 18.3006C12.237 18.2612 12.2239 18.2262 12.1977 18.2C12.2917 18.1694 12.3858 18.1387 12.4798 18.1081C12.4427 18.154 12.4033 18.2 12.3661 18.2481ZM11.7295 18.4603C11.7317 18.4253 11.7252 18.3925 11.7098 18.3619C11.7492 18.3487 11.7886 18.3356 11.828 18.3225C11.7952 18.3684 11.7623 18.4144 11.7295 18.4603ZM8.01953 13.884C7.96703 14.2056 7.91453 14.5272 7.85984 14.8487C7.90359 14.5118 7.94734 14.175 7.99109 13.8381C8.00203 13.8534 8.01078 13.8687 8.01953 13.884ZM6.30453 20.4794C6.3789 20.359 6.45546 20.2365 6.52984 20.1162C6.56265 20.0615 6.56046 20.0069 6.53859 19.9631C6.58671 19.95 6.63265 19.939 6.68078 19.9259C6.55609 20.1119 6.42921 20.2956 6.30453 20.4794ZM5.01609 20.7353C5.02921 20.7178 5.04015 20.7003 5.05328 20.6828C5.11671 20.5997 5.17796 20.5143 5.2414 20.4312C5.27859 20.3809 5.28078 20.3284 5.26109 20.2868C5.35734 20.2606 5.45578 20.2365 5.55421 20.2125C5.37484 20.3853 5.19546 20.5603 5.01609 20.7353ZM4.72515 20.4531C4.7339 20.4422 4.74484 20.429 4.75359 20.4159C4.75359 20.4159 4.75359 20.4137 4.75578 20.4137C4.76015 20.4137 4.76453 20.4115 4.77109 20.4094C4.75578 20.4247 4.74046 20.44 4.72515 20.4531ZM3.83265 20.7659C3.83484 20.7265 3.8239 20.6872 3.80203 20.6565C3.87421 20.6368 3.94859 20.6194 4.02078 20.5997C3.95734 20.6565 3.8939 20.7112 3.83265 20.7659ZM2.1964 21.2231C2.1964 21.1706 2.17015 21.1203 2.13078 21.0853C2.2839 21.0459 2.43703 21.0065 2.59015 20.9672C2.4589 21.0525 2.32765 21.1378 2.1964 21.2231ZM1.64953 21.2625C1.64734 21.2472 1.64078 21.2297 1.63203 21.2165C1.67796 21.2034 1.72609 21.1925 1.77203 21.1793C1.73046 21.2078 1.69109 21.2362 1.64953 21.2625ZM6.73109 27.7134C6.71578 28.024 6.70046 28.3369 6.68515 28.6475C6.68296 28.7065 6.70265 28.7481 6.73328 28.7765C6.70703 28.8706 6.68078 28.9647 6.65453 29.0587C6.6764 28.595 6.70265 28.1334 6.73328 27.6719C6.73109 27.685 6.73109 27.6981 6.73109 27.7134ZM6.62828 29.5619C6.64796 29.575 6.66765 29.5859 6.68953 29.5925C6.66546 29.6406 6.64359 29.6887 6.61953 29.7369C6.6239 29.6778 6.62609 29.6209 6.62828 29.5619ZM12.3311 25.41C12.3398 25.4144 12.3486 25.4209 12.3573 25.4253C12.3092 25.4078 12.2611 25.3903 12.213 25.3728C12.2523 25.3837 12.2917 25.3969 12.3311 25.41ZM13.6064 25.819C13.4642 25.5981 13.322 25.3772 13.182 25.1562C13.1973 25.1759 13.2127 25.1956 13.228 25.2175C13.4117 25.4603 13.5955 25.7031 13.7792 25.9481C13.7289 25.9306 13.6808 25.9109 13.6327 25.8934C13.6305 25.8694 13.6217 25.8431 13.6064 25.819ZM15.5905 17.2594C15.5817 17.255 15.573 17.2506 15.562 17.2484C15.5227 17.2069 15.4658 17.185 15.4002 17.209C15.3433 17.2287 15.2864 17.2484 15.2317 17.2681C15.3302 17.2178 15.4264 17.1675 15.5248 17.1172C15.6189 17.0865 15.7108 17.0559 15.8027 17.0253C15.7327 17.104 15.6605 17.1806 15.5905 17.2594ZM3.39296 20.7593C3.28578 20.8512 3.17859 20.9453 3.0714 21.0372C3.1064 20.9715 3.0889 20.8994 3.04515 20.849C3.09765 20.8359 3.15234 20.8206 3.20484 20.8075C3.26828 20.7922 3.32953 20.7747 3.39296 20.7593ZM0.844526 21.4243C0.945151 21.3981 1.04578 21.3719 1.1464 21.3434C1.14421 21.4003 1.14203 21.4593 1.14203 21.5162C1.0414 21.4856 0.942964 21.455 0.844526 21.4243ZM6.98265 23.94C7.01109 23.964 7.0439 23.9794 7.0789 23.9837C7.0789 23.9903 7.07671 23.999 7.07671 24.0078C7.02421 24.0275 6.98046 24.0712 6.96734 24.1412C6.96953 24.1084 6.97171 24.0778 6.97171 24.045C6.9739 24.01 6.97609 23.975 6.97828 23.94C6.98046 23.94 6.98046 23.94 6.98265 23.94ZM14.243 26.1144C14.2561 26.0728 14.2561 26.0247 14.2277 25.97C14.1905 25.9022 14.1555 25.8344 14.1183 25.7665C14.2473 25.8847 14.3786 26.0006 14.5077 26.1187C14.523 26.1362 14.5383 26.1537 14.5536 26.1712C14.5645 26.1931 14.5755 26.215 14.5886 26.2369C14.4727 26.1953 14.3567 26.1537 14.243 26.1144ZM13.8623 19.1231C13.928 19.029 13.9958 18.935 14.0592 18.8409C14.1095 18.7665 14.1598 18.6922 14.2102 18.62C14.3392 18.5259 14.4683 18.434 14.5995 18.3422C14.4508 18.5019 14.302 18.6615 14.1511 18.819C14.0548 18.9197 13.9586 19.0203 13.8623 19.1231ZM20.4839 14.444C20.6195 14.374 20.7683 14.3128 20.8995 14.2297C20.8317 14.2734 20.8952 14.2318 20.9323 14.2165C21.0155 14.1837 21.0964 14.1487 21.1795 14.1159C21.4398 14.0087 21.698 13.9037 21.9583 13.7965C22.398 13.6172 22.8355 13.4247 23.2795 13.2562C23.623 13.125 23.9752 13.02 24.3208 12.9018C24.7955 12.74 25.268 12.5715 25.7448 12.4184C26.0642 12.3156 26.4055 12.2587 26.7314 12.1822C27.2433 12.0618 27.7573 11.9415 28.2692 11.8212C28.313 11.8103 28.3786 11.7993 28.3042 11.8103C28.3545 11.8037 28.4048 11.7972 28.4552 11.7906C28.7023 11.7622 28.9495 11.7315 29.1945 11.7009C29.7327 11.6375 30.2686 11.5718 30.8045 11.5084C30.8395 11.504 30.8745 11.4997 30.9095 11.4953C31.1283 11.469 31.1305 11.1212 30.9095 11.1497C30.0411 11.2547 29.1683 11.3465 28.302 11.4625C27.9083 11.5172 27.5123 11.644 27.1252 11.7337C26.6548 11.8453 26.178 11.9393 25.7098 12.0662C25.362 12.1625 25.0186 12.3003 24.6773 12.4162C24.1983 12.5781 23.717 12.7356 23.2402 12.904C22.9142 13.0178 22.597 13.1643 22.2755 13.2956C21.7942 13.4925 21.3108 13.6915 20.8273 13.8884C20.5211 14.0131 20.2302 14.1837 19.937 14.3347C19.4514 14.584 18.9658 14.8312 18.4823 15.0806C18.4495 15.0959 18.4189 15.1134 18.3883 15.1287C18.1892 15.2293 18.3642 15.529 18.5633 15.4284C18.9395 15.2337 19.318 15.0412 19.6942 14.8487C19.9567 14.7131 20.2214 14.5775 20.4839 14.444ZM41.7727 18.2962C41.0223 18.2175 40.2698 18.1387 39.5195 18.06C38.9836 18.0031 38.4586 17.9703 37.9227 17.9462C37.437 17.9265 36.9492 17.9047 36.4636 17.8828C36.2558 17.874 36.048 17.8544 35.8423 17.8565C35.0308 17.8609 34.2192 17.9025 33.4098 17.9244C32.8652 17.9397 32.3205 17.944 31.778 17.9484C31.3033 17.9506 30.8308 17.955 30.3583 17.9594C30.1745 17.9594 29.9952 17.955 29.8136 17.979C28.978 18.0906 28.1445 18.2043 27.3089 18.3181C27.2017 18.3312 27.0945 18.3465 26.9873 18.3597C26.9852 18.3619 26.983 18.3619 26.9808 18.3619C26.9414 18.364 26.902 18.3706 26.8627 18.375C26.4602 18.4187 26.0577 18.4647 25.6573 18.5084C25.0514 18.5762 24.4367 18.62 23.8352 18.725C22.9973 18.8693 22.1573 19.0159 21.3173 19.1603C21.2452 19.1734 21.1708 19.1865 21.0964 19.1997C20.8777 19.2369 20.9695 19.5715 21.1883 19.5344C21.9277 19.4053 22.667 19.2762 23.4064 19.1494C23.5836 19.1187 23.7586 19.0881 23.9358 19.0575C23.9817 19.0487 24.0277 19.0422 24.0714 19.0334C24.0758 19.0334 24.078 19.0312 24.0802 19.0312C24.3798 19.0072 24.6817 18.9634 24.9814 18.9306C25.6748 18.854 26.3727 18.7906 27.0639 18.6965C27.8623 18.5894 28.6608 18.48 29.4592 18.3728C29.608 18.3531 29.7567 18.3334 29.9055 18.3137C29.9186 18.3115 29.9317 18.3094 29.9448 18.3072C29.9536 18.3072 29.9733 18.3072 29.9886 18.3072C30.3452 18.3137 30.7039 18.3028 31.0627 18.2984C31.7036 18.294 32.3489 18.3006 32.992 18.2831C33.832 18.259 34.6742 18.235 35.5142 18.2109C36.0764 18.1956 36.6386 18.2372 37.2008 18.2612C37.8002 18.2875 38.4061 18.2897 39.0033 18.3531C39.8542 18.4428 40.7052 18.5303 41.5561 18.62C41.6283 18.6287 41.7005 18.6353 41.7727 18.644C41.9936 18.6659 41.9936 18.3203 41.7727 18.2962ZM29.8639 26.3659C29.1267 26.2478 28.3895 26.1275 27.6523 26.0094C27.0508 25.9109 26.447 25.8168 25.8433 25.7206C25.5086 25.6681 25.1739 25.6112 24.8392 25.5609C24.5964 25.5259 24.347 25.515 24.102 25.4931C23.448 25.434 22.7895 25.3487 22.1333 25.3225C21.3392 25.2919 20.5452 25.2612 19.7511 25.2284C19.7292 25.2284 19.7073 25.2284 19.6833 25.2262C19.4602 25.2175 19.4602 25.5631 19.6833 25.5719C20.427 25.6025 21.1708 25.6309 21.9145 25.6594C22.5183 25.6834 23.1177 25.7512 23.7192 25.8059C24.0648 25.8365 24.4127 25.8803 24.7583 25.8978C24.7583 25.8978 24.7583 25.8978 24.7605 25.8978C24.802 25.9044 24.8436 25.9109 24.8852 25.9175C25.0667 25.9459 25.2461 25.9743 25.4277 26.0028C26.073 26.1056 26.7161 26.2062 27.3592 26.3112C28.1423 26.4359 28.9233 26.5628 29.7042 26.6897C29.7283 26.694 29.7502 26.6962 29.772 26.7006C29.9908 26.7356 30.0848 26.4009 29.8639 26.3659Z" fill="white"></path></g></g><defs><clipPath id="clip0_623_1065"><rect width="42" height="42" fill="white"></rect></clipPath></defs></svg>