<svg xmlns="http://www.w3.org/2000/svg" width="41" height="41" viewBox="0 0 41 41" fill="none"><g clip-path="url(#clip0_162_338)"><mask id="mask0_162_338" style="mask-type:luminance" maskUnits="userSpaceOnUse" x="4" y="5" width="31" height="31"><path d="M4.92004 5.51581H34.9867V35.4458H4.92004V5.51581Z" fill="white"></path></mask><g mask="url(#mask0_162_338)"><path d="M5.86821 17.8286C5.85753 18.1147 5.84899 18.403 5.85326 18.6892C5.79133 18.8066 5.73368 18.9262 5.68243 19.0458C5.72727 18.6336 5.79133 18.2279 5.86821 17.8286ZM11.7427 8.82568C11.4822 9.11823 11.2452 9.44281 11.0295 9.79516C10.5384 10.0407 10.0857 10.3077 9.67352 10.5959C10.3056 9.94464 10.9975 9.34886 11.7427 8.82568ZM30.5408 10.5938C30.1287 10.3055 29.6738 10.0365 29.1827 9.79302C28.967 9.43641 28.7257 9.10969 28.4631 8.815C29.1378 9.28906 29.7763 9.82292 30.3721 10.4166C30.4298 10.4721 30.4853 10.534 30.5408 10.5938ZM34.3611 18.687C34.3675 18.3966 34.3589 18.1083 34.3461 17.8201C34.423 18.2194 34.4828 18.6208 34.5276 19.0266C34.4785 18.9134 34.423 18.7981 34.3611 18.687ZM34.3034 23.7031C34.2735 23.1543 34.1198 22.6205 33.8486 22.1016C34.1198 21.1449 34.2863 20.1754 34.3419 19.2038C34.4871 19.5519 34.5767 19.9085 34.6152 20.2672C34.6173 20.3996 34.6237 20.5363 34.6237 20.6708C34.6237 21.7022 34.5148 22.7166 34.3034 23.7031ZM30.0454 31.2369C30.0796 31.1835 30.1095 31.1301 30.1415 31.0767C30.2568 30.9913 30.3678 30.9016 30.481 30.8098C30.4426 30.8482 30.4084 30.8888 30.3721 30.9251C30.2653 31.0319 30.1543 31.1322 30.0454 31.2369ZM9.72477 30.8034C9.83795 30.8952 9.95112 30.987 10.0664 31.0746C10.0985 31.128 10.1305 31.1814 10.1668 31.2347C10.0558 31.1301 9.94685 31.0297 9.84008 30.9251C9.80165 30.8845 9.76534 30.844 9.72477 30.8034ZM7.30961 17.2542C7.32243 18.198 7.44201 19.1675 7.67691 20.1583C7.69399 20.2331 7.71321 20.3057 7.73243 20.3804C7.60003 20.4957 7.47404 20.611 7.35446 20.7306C6.99357 21.0915 6.69461 21.4673 6.46612 21.8453C6.20347 20.8716 6.05612 19.8807 6.02409 18.8899C6.31665 18.3133 6.75013 17.7645 7.30961 17.2542ZM6.50883 15.5949C6.79071 15.0526 7.19857 14.5401 7.71961 14.0617C7.45909 14.9821 7.32029 15.9452 7.30748 16.9381C7.16654 17.062 7.02987 17.1858 6.90388 17.3118C6.54513 17.6706 6.25045 18.0357 6.01555 18.4116C6.01769 17.8457 6.05826 17.2798 6.13513 16.7203C6.24618 16.3381 6.37003 15.9622 6.50883 15.5949ZM8.72326 11.685C8.6229 11.8558 8.52894 12.0288 8.44138 12.206C8.33034 12.3021 8.22357 12.3961 8.12321 12.4986C8.31326 12.2189 8.51185 11.9455 8.72326 11.685ZM10.4871 10.8693C9.83581 11.2003 9.25498 11.5611 8.75529 11.9498C8.91331 11.6594 9.08842 11.3754 9.27633 11.0999C9.73972 10.7198 10.2778 10.3674 10.8779 10.0535C10.7348 10.3119 10.6046 10.5831 10.4871 10.8693ZM13.5963 8.96875C13.4746 9.22714 13.3635 9.50047 13.2632 9.79089C12.8489 9.91261 12.4453 10.045 12.0545 10.1902C11.5783 10.3674 11.132 10.5575 10.7135 10.7604C10.8416 10.4635 10.9868 10.1817 11.1448 9.91688C11.8815 9.54958 12.7079 9.23141 13.5963 8.96875ZM12.4688 8.34307C12.6802 8.21068 12.8937 8.08682 13.1115 7.96724C13.5984 7.74302 14.128 7.54443 14.6875 7.37359C14.301 7.76865 13.97 8.23417 13.6924 8.77443C12.8318 9.02214 12.0289 9.32109 11.3028 9.66063C11.6381 9.1524 12.0289 8.71037 12.4688 8.34307ZM14.9395 7.13229C14.9032 7.1387 14.8647 7.14938 14.8284 7.16219C14.8733 7.14297 14.9181 7.12802 14.9651 7.11094C14.9565 7.11734 14.948 7.12375 14.9395 7.13229ZM17.4251 6.62193C16.682 6.71802 15.9645 6.85896 15.2833 7.0362C15.2875 7.02339 15.2897 7.0063 15.2875 6.99135C16.0392 6.72656 16.8186 6.52156 17.6237 6.38276C17.5532 6.45537 17.487 6.53651 17.4251 6.62193ZM24.9311 7.03193C24.2499 6.85469 23.5324 6.71375 22.7871 6.61766C22.7273 6.53438 22.6633 6.45537 22.5949 6.38276C23.3914 6.52156 24.173 6.72016 24.9289 6.98495C24.9247 7.00203 24.9247 7.01698 24.9311 7.03193ZM25.2663 7.12375C25.2599 7.11734 25.2514 7.11094 25.245 7.1024C25.2898 7.12162 25.3368 7.13656 25.3816 7.15578C25.3453 7.1451 25.3048 7.13443 25.2663 7.12375ZM29.5009 10.7561C29.0823 10.5554 28.636 10.3632 28.162 10.1881C27.769 10.0429 27.3654 9.91047 26.9533 9.78875C26.8529 9.49833 26.7398 9.22714 26.6181 8.96448C27.5085 9.22927 28.3328 9.54745 29.0674 9.91474C29.2275 10.1795 29.3727 10.4614 29.5009 10.7561ZM30.9337 11.0935C31.1238 11.3711 31.2989 11.653 31.4569 11.9434C30.9572 11.5569 30.3807 11.196 29.7272 10.8671C29.6098 10.581 29.4795 10.3077 29.3343 10.0493C29.9344 10.3653 30.4703 10.7134 30.9337 11.0935ZM31.7687 12.1996C31.6811 12.0203 31.585 11.843 31.4847 11.6658C31.7003 11.9391 31.9075 12.2167 32.1018 12.5007C31.995 12.3982 31.884 12.2957 31.7687 12.1996ZM33.3147 17.3118C33.1866 17.1837 33.0499 17.062 32.909 16.936C32.894 15.9345 32.7552 14.9629 32.4883 14.034C33.0094 14.5144 33.4172 15.0312 33.7034 15.58C33.8464 15.958 33.9703 16.3423 34.0792 16.7331C34.1582 17.2883 34.1966 17.8478 34.1988 18.4094C33.966 18.0336 33.6713 17.6684 33.3147 17.3118ZM32.8129 20.7306C32.7061 20.6217 32.5908 20.5171 32.4755 20.4146C32.4969 20.3292 32.5203 20.2416 32.5374 20.1583C32.7745 19.1675 32.894 18.198 32.9047 17.2563C32.9859 17.331 33.067 17.4058 33.1418 17.4848C33.5966 17.9354 33.9468 18.4073 34.1924 18.8878C34.1603 19.8957 34.0066 20.9057 33.7354 21.8987C33.5005 21.4994 33.193 21.1086 32.8129 20.7306ZM33.1375 23.6369C32.9154 23.2632 32.625 22.9023 32.2726 22.5479C32.1531 22.4326 32.0313 22.3194 31.9011 22.2041C32.1061 21.6681 32.2854 21.13 32.4307 20.5897C32.5225 20.673 32.6122 20.7584 32.6997 20.8438C33.114 21.2559 33.4386 21.683 33.6756 22.1186C33.5283 22.6311 33.3468 23.1372 33.1375 23.6369ZM34.1369 24.2007C34.0002 24.5701 33.8507 24.9225 33.6884 25.2641C33.6393 24.7687 33.4898 24.284 33.2357 23.812C33.4471 23.323 33.6308 22.8297 33.7824 22.3279C34.0258 22.8447 34.1497 23.3743 34.1497 23.9145C34.1497 24.0085 34.1454 24.1046 34.1369 24.2007ZM33.7012 25.5994C33.776 25.4542 33.8464 25.3068 33.9148 25.1573C33.8464 25.3688 33.7738 25.5759 33.6948 25.7852C33.6991 25.7211 33.7012 25.6613 33.7012 25.5994ZM27.3783 32.4092C27.4765 32.1743 27.5277 31.9352 27.5363 31.6896C28.4801 31.1984 29.4603 30.5685 30.3913 29.7741C30.3657 30.1777 30.2376 30.5792 30.0198 30.9678C29.2019 31.5679 28.2965 32.0441 27.3783 32.4092ZM25.9689 33.9403C25.9582 33.9446 25.9454 33.951 25.9326 33.9531C26.144 33.8165 26.3404 33.6777 26.5134 33.5282C26.8124 33.4385 27.1092 33.3317 27.3975 33.2164C26.9341 33.4833 26.46 33.7246 25.9689 33.9403ZM13.6838 33.5218C13.8525 33.6691 14.0404 33.8101 14.2476 33.9403C14.2433 33.9403 14.239 33.9382 14.2348 33.936C13.75 33.7225 13.2717 33.4812 12.8126 33.2121C13.0945 33.3296 13.387 33.4342 13.6838 33.5218ZM9.823 29.7741C10.754 30.5664 11.7342 31.1963 12.6781 31.6875C12.6845 31.933 12.7357 32.1722 12.8318 32.4071C11.9157 32.0419 11.0103 31.5657 10.1924 30.9657C9.97461 30.577 9.84649 30.1756 9.823 29.7741ZM6.51097 25.593C6.51097 25.6549 6.51524 25.7168 6.51737 25.783C6.43623 25.5695 6.36149 25.3559 6.29316 25.1403C6.36149 25.294 6.43409 25.4456 6.51097 25.593ZM8.31326 22.2019C8.183 22.3172 8.05915 22.4304 7.9417 22.5479C7.58722 22.9002 7.30107 23.2632 7.07899 23.6327C6.86118 23.118 6.67753 22.5948 6.52378 22.0631C6.82274 21.5314 7.24555 21.0275 7.77727 20.5555C7.92248 21.1043 8.10399 21.6553 8.31326 22.2019ZM10.0643 19.0436C10.1796 19.6202 10.3206 20.201 10.485 20.7797C9.70982 21.1684 9.02222 21.6083 8.44566 22.0909C8.23425 21.54 8.05701 20.9869 7.9118 20.4381C8.50972 19.9256 9.23362 19.4601 10.0643 19.0436ZM9.97888 12.5306C9.81019 13.3079 9.70982 14.145 9.6906 15.0419C9.68633 15.1551 9.68847 15.2682 9.68847 15.3814C8.84711 15.7999 8.10185 16.274 7.47404 16.7972C7.5018 15.7765 7.65982 14.7942 7.95237 13.8546C8.5204 13.372 9.20373 12.9299 9.97888 12.5306ZM10.0259 12.3128C9.27206 12.6951 8.60581 13.1157 8.04206 13.5684C8.19154 13.135 8.36878 12.7121 8.57378 12.2979C9.09269 11.8558 9.70982 11.448 10.406 11.0828C10.2586 11.4715 10.1284 11.8815 10.0259 12.3128ZM12.8959 11.2003C12.3065 11.3732 11.7385 11.5676 11.2046 11.7811C10.8608 11.9199 10.532 12.0672 10.2181 12.2189C10.3291 11.7811 10.4615 11.3626 10.6195 10.9718C11.3925 10.5831 12.2638 10.2479 13.2034 9.96813C13.0816 10.3525 12.977 10.7625 12.8959 11.2003ZM16.5047 9.26344C16.4407 9.64995 16.3873 10.0535 16.3488 10.4699C15.2021 10.628 14.1002 10.8543 13.0688 11.149C13.1542 10.707 13.261 10.297 13.3913 9.91261C14.3629 9.63287 15.4071 9.41505 16.5047 9.26344ZM16.7012 8.31104C16.6371 8.56089 16.5816 8.82354 16.5303 9.10115C15.4605 9.24635 14.4248 9.45776 13.4532 9.73323C13.5578 9.44281 13.6732 9.16734 13.8034 8.90682C14.7088 8.65057 15.6847 8.44984 16.7012 8.31104ZM20.026 7.9224C18.9583 7.92453 17.912 7.99287 16.9104 8.11885C17.0706 7.57432 17.2692 7.11734 17.5084 6.77354C18.3241 6.66677 19.1676 6.61125 20.026 6.60698V7.9224ZM23.306 8.11885C22.3024 7.99287 21.256 7.92453 20.1862 7.9224V6.60698C21.0489 6.60912 21.8924 6.66464 22.7038 6.76714C22.9451 7.11307 23.1437 7.57005 23.306 8.11885ZM23.684 9.09901C23.6349 8.82354 23.5794 8.55875 23.5132 8.30891C24.5317 8.44771 25.5055 8.64844 26.4109 8.90682C26.5412 9.16521 26.6586 9.44281 26.7633 9.73323C25.7895 9.45563 24.756 9.24422 23.684 9.09901ZM27.1455 11.1426C26.1226 10.8522 25.0229 10.6237 23.8676 10.4657C23.8271 10.0493 23.7758 9.64781 23.7096 9.26344C24.8094 9.41292 25.8536 9.63287 26.8252 9.91047C26.9533 10.2948 27.0601 10.7027 27.1455 11.1426ZM29.9963 12.2082C29.1891 11.8174 28.2901 11.4779 27.3185 11.1939C27.2352 10.7561 27.1348 10.3504 27.011 9.96599C27.9527 10.2479 28.8218 10.581 29.5948 10.9675C29.7528 11.3583 29.8852 11.7726 29.9963 12.2082ZM30.1885 12.3C30.0838 11.8708 29.9557 11.4651 29.8084 11.0807C30.5045 11.4437 31.1195 11.8516 31.6384 12.2936C31.8413 12.7015 32.0207 13.1221 32.168 13.5514C31.6 13.0965 30.9337 12.6758 30.1885 12.3ZM30.528 15.3793C30.528 15.2682 30.528 15.1551 30.5259 15.0419C30.5045 14.1343 30.4041 13.2844 30.2312 12.5007C31.0042 12.8958 31.6875 13.3421 32.2556 13.8268C32.5502 14.775 32.7147 15.7679 32.7424 16.7951C32.1125 16.274 31.3694 15.8 30.528 15.3793ZM29.7294 20.7797C29.8938 20.2075 30.0326 19.6352 30.1458 19.065C30.9786 19.4857 31.7003 19.9576 32.294 20.4701C32.1509 21.0104 31.9779 21.5549 31.7708 22.093C31.1921 21.6083 30.5045 21.1705 29.7294 20.7797ZM31.0725 23.686C30.5344 23.2376 29.8959 22.8276 29.1763 22.4667C29.3663 21.9585 29.535 21.4503 29.6845 20.9356C30.4575 21.3264 31.1387 21.7663 31.7089 22.251C31.521 22.7336 31.3096 23.212 31.0725 23.686ZM32.3773 25.1744C32.1659 24.8135 31.8883 24.4612 31.5445 24.1153C31.4356 24.0064 31.3181 23.8996 31.1985 23.795C31.4356 23.323 31.6491 22.8447 31.8391 22.3642C31.9481 22.4625 32.057 22.5607 32.1573 22.661C32.5332 23.039 32.8321 23.4255 33.0563 23.8248C32.8556 24.2797 32.6314 24.7324 32.3773 25.1744ZM24.0086 32.8064C23.9958 32.6868 23.9637 32.5651 23.9103 32.4455C25.0784 31.995 26.1696 31.4483 27.1754 30.8077C27.3014 31.0618 27.3676 31.3244 27.374 31.5935C26.112 32.2405 24.9183 32.6313 24.0086 32.8064ZM23.9488 33.2847C23.9851 33.1844 24.0064 33.0776 24.0128 32.9708C24.9183 32.7957 26.1056 32.4135 27.3697 31.775C27.3505 32.0163 27.2843 32.2576 27.169 32.4882C26.0607 32.9046 24.946 33.1673 23.9488 33.2847ZM23.1309 34.1966C23.2719 34.109 23.4 34.0129 23.511 33.9126C24.3417 33.9681 25.2428 33.8677 26.129 33.6371C25.8877 33.8143 25.6123 33.9788 25.3133 34.1304C24.6278 34.2969 24.0748 34.2991 23.1309 34.1966ZM18.1533 34.6557C18.7341 34.8244 19.4046 34.9205 20.1072 34.9205C20.4531 34.9205 20.7884 34.897 21.1065 34.8564C21.2133 34.961 21.3244 35.0486 21.4375 35.1105C20.9976 35.1511 20.5535 35.1725 20.1072 35.1725C19.1227 35.1725 18.1554 35.0742 17.2115 34.8863C17.5404 34.8564 17.8436 34.7817 18.1533 34.6557ZM16.7097 33.9126C16.8208 34.0129 16.9489 34.109 17.0898 34.1966C16.1396 34.2991 15.5865 34.2969 14.8967 34.1282C14.5978 33.9766 14.3245 33.8143 14.0832 33.635C14.9715 33.8677 15.8769 33.9681 16.7097 33.9126ZM16.2015 32.9708C16.2079 33.0755 16.2292 33.1822 16.2656 33.2847C15.2683 33.1652 14.1515 32.9046 13.0432 32.4861C12.9279 32.2555 12.8617 32.0163 12.8446 31.775C14.1066 32.4114 15.2939 32.7957 16.2015 32.9708ZM13.0389 30.8034C14.0447 31.4483 15.1381 31.995 16.304 32.4434C16.2485 32.563 16.2164 32.6847 16.2036 32.8064C15.2939 32.6292 14.1024 32.2384 12.8382 31.5914C12.8446 31.3202 12.9151 31.0575 13.0389 30.8034ZM7.74524 25.3346C7.51034 25.7788 7.37154 26.2357 7.33524 26.7034C7.09821 26.3382 6.87612 25.9603 6.67326 25.5567C6.67967 25.0228 6.81206 24.5039 7.06191 24.0042C7.26477 24.4569 7.49326 24.9011 7.74524 25.3346ZM9.01795 23.7928C8.89623 23.8996 8.77878 24.0064 8.66774 24.1153C8.32607 24.4591 8.04847 24.8114 7.83706 25.1723C7.58508 24.7303 7.35873 24.2797 7.16013 23.8248C7.44842 23.3081 7.85842 22.8191 8.37519 22.3642C8.56524 22.8426 8.78092 23.3209 9.01795 23.7928ZM11.0402 22.4646C10.3184 22.8255 9.67993 23.2355 9.1418 23.6839C8.90477 23.212 8.69336 22.7315 8.50545 22.251C9.0692 21.7748 9.75253 21.335 10.532 20.942C10.6814 21.4524 10.8501 21.9606 11.0402 22.4646ZM13.3294 19.8636C13.4404 20.3847 13.5664 20.91 13.7052 21.4375C12.7891 21.7022 11.9435 22.0226 11.1833 22.392C10.9953 21.888 10.8288 21.3798 10.6772 20.8716C11.4715 20.4851 12.3641 20.1455 13.3294 19.8636ZM12.9685 17.9226C13.0582 18.5055 13.1649 19.0992 13.2931 19.6992C12.3278 19.979 11.4352 20.3164 10.6323 20.7093C10.4679 20.1263 10.3291 19.5455 10.2138 18.9689C11.0402 18.5675 11.9648 18.213 12.9685 17.9226ZM12.6567 14.4931C12.6781 15.5202 12.7741 16.6157 12.9428 17.756C11.9413 18.0443 11.0146 18.3945 10.1796 18.8002C9.97034 17.7005 9.8593 16.6157 9.84649 15.5736C10.6878 15.1593 11.6317 14.7984 12.6567 14.4931ZM12.7122 12.5541C12.6652 13.0901 12.6482 13.6539 12.6524 14.239C11.6402 14.5358 10.6985 14.8924 9.84862 15.3003C9.84862 15.217 9.84862 15.1316 9.85076 15.0461C9.87211 14.113 9.97888 13.2374 10.1647 12.4367C10.9761 12.0352 11.8794 11.6829 12.8638 11.386C12.7998 11.7576 12.7485 12.1441 12.7122 12.5541ZM16.2271 13.4916C15.027 13.6539 13.8803 13.8909 12.8126 14.192C12.8083 13.6346 12.8275 13.0922 12.8724 12.5648C12.9108 12.1356 12.9663 11.7256 13.0347 11.3391C14.0639 11.038 15.1722 10.8009 16.3317 10.6386C16.2506 11.559 16.2207 12.537 16.2271 13.4916ZM20.026 10.376V13.2374C18.7683 13.2417 17.5383 13.3229 16.3574 13.4745C16.3552 12.4559 16.3937 11.4928 16.4727 10.6194C17.6173 10.4657 18.8067 10.3824 20.026 10.376ZM20.026 9.02214V10.2158C18.8281 10.2201 17.6386 10.3013 16.4898 10.4507C16.5325 10.0279 16.5859 9.62005 16.6542 9.24422C17.7326 9.10328 18.8644 9.02641 20.026 9.02214ZM20.026 8.85984C18.8836 8.86412 17.7646 8.93885 16.6841 9.07766C16.7375 8.80005 16.7951 8.53526 16.8613 8.28969C17.8799 8.15516 18.9412 8.08682 20.026 8.08255V8.85984ZM20.1862 8.85984V8.08255C21.2731 8.08682 22.3344 8.15516 23.353 8.28755C23.4213 8.53313 23.4769 8.79792 23.5324 9.07766C22.4497 8.93885 21.3286 8.86412 20.1862 8.85984ZM20.1862 10.2158V9.02214C21.35 9.02427 22.4818 9.10115 23.5623 9.24208C23.6285 9.62005 23.6819 10.0236 23.7246 10.4465C22.5928 10.2991 21.4034 10.2201 20.1862 10.2158ZM23.857 13.4745C22.6782 13.3207 21.4461 13.2396 20.1862 13.2374V10.376C21.4119 10.3803 22.6013 10.4635 23.7416 10.6109C23.8228 11.4864 23.8612 12.4538 23.857 13.4745ZM27.342 12.5648C27.3889 13.0922 27.406 13.6346 27.4018 14.192C26.3362 13.8909 25.1895 13.6539 23.9894 13.4916C23.9936 12.5328 23.9659 11.5526 23.8826 10.628C25.0464 10.7881 26.1504 11.0209 27.1775 11.3156C27.248 11.7106 27.3035 12.127 27.342 12.5648ZM27.564 14.239C27.5683 13.6539 27.5491 13.0901 27.5042 12.5541C27.4658 12.1377 27.4146 11.7448 27.3484 11.3647C28.3328 11.6551 29.2361 12.0053 30.0475 12.4046C30.2333 13.2161 30.3422 14.1002 30.3657 15.0461C30.3678 15.1316 30.3657 15.217 30.3678 15.3003C29.5179 14.8903 28.5762 14.5358 27.564 14.239ZM27.2694 17.7688C27.4423 16.6221 27.5384 15.5202 27.5598 14.4867C28.5784 14.7878 29.5222 15.1508 30.3678 15.5693C30.3572 16.6178 30.2419 17.7111 30.0326 18.8216C29.1998 18.4116 28.2709 18.0614 27.2694 17.7688ZM26.9213 19.7014C27.0494 19.1056 27.154 18.5162 27.2437 17.9396C27.3654 17.9759 27.4893 18.008 27.611 18.0443C28.478 18.3176 29.2745 18.6336 29.9963 18.9903C29.8831 19.5604 29.7464 20.1348 29.5841 20.7093C28.7791 20.3185 27.8886 19.979 26.9213 19.7014ZM26.5113 21.4375C26.6501 20.9079 26.7761 20.3804 26.8871 19.8572C27.8502 20.1348 28.7407 20.4744 29.5393 20.8652C29.3877 21.3755 29.2211 21.888 29.0332 22.3941C28.273 22.0247 27.4252 21.7022 26.5113 21.4375ZM28.4865 23.7416C28.162 24.474 27.8032 25.1787 27.4124 25.8599C26.7953 25.5567 26.1098 25.2962 25.3667 25.0805C25.5866 24.4868 25.7959 23.8761 25.9924 23.2504C26.1653 22.6952 26.3255 22.1421 26.4707 21.5955C27.3804 21.856 28.2218 22.1742 28.9777 22.5436C28.8239 22.9472 28.6638 23.3465 28.4865 23.7416ZM29.0546 26.8977C28.6253 26.5432 28.1214 26.2186 27.5576 25.9304C27.9484 25.2492 28.3072 24.5402 28.6339 23.8078C28.809 23.4127 28.9713 23.0177 29.1208 22.6162C29.834 22.9771 30.4661 23.385 30.9957 23.8313C30.4597 24.8862 29.8084 25.9154 29.0546 26.8977ZM29.4539 27.2629C29.3663 27.1732 29.2724 27.0878 29.1741 27.0023C29.9301 26.0222 30.5835 24.9951 31.1216 23.9402C31.2284 24.0384 31.3331 24.1323 31.4291 24.2306C31.79 24.5893 32.074 24.9566 32.2833 25.3346C32.2278 25.4328 32.1723 25.5289 32.1146 25.6229C31.5487 26.5368 30.891 27.3846 30.1543 28.1619C29.9771 27.8522 29.7443 27.5533 29.4539 27.2629ZM26.7483 29.9556C26.6928 29.9022 26.633 29.8489 26.5732 29.7976C27.4551 29.016 28.2901 28.1298 29.046 27.1732C29.0546 27.1582 29.0652 27.1433 29.0759 27.1305C29.1677 27.2116 29.2574 27.2928 29.3386 27.3739C29.6333 27.6686 29.8639 27.9718 30.0369 28.2836C29.204 29.1399 28.2645 29.9044 27.2331 30.5749C27.1113 30.3635 26.949 30.1585 26.7483 29.9556ZM23.5858 31.9885C23.5729 31.9757 23.5623 31.9672 23.5495 31.9565C24.5382 31.4163 25.5204 30.718 26.4536 29.9044C26.5156 29.9578 26.5775 30.0133 26.6351 30.0709C26.8273 30.2653 26.9811 30.4617 27.1007 30.6625C26.0927 31.3052 25.0015 31.854 23.8335 32.3025C23.7673 32.1935 23.6861 32.0889 23.5858 31.9885ZM13.7564 29.9001C14.6939 30.7158 15.6762 31.4141 16.6649 31.9544C16.6521 31.9672 16.6392 31.9757 16.6286 31.9885C16.5282 32.0889 16.4471 32.1935 16.3787 32.3025C15.2107 31.854 14.1216 31.3031 13.1137 30.6625C13.2696 30.3934 13.4874 30.1393 13.7564 29.9001ZM11.1363 27.1283C11.1491 27.1433 11.1598 27.1582 11.1704 27.1732C11.9242 28.1298 12.7592 29.016 13.6411 29.7955C13.5813 29.8489 13.5215 29.9022 13.4639 29.9556C13.2632 30.1564 13.1009 30.3635 12.9791 30.5749C11.9499 29.9044 11.0103 29.1378 10.1775 28.2836C10.4017 27.8757 10.7263 27.4871 11.1363 27.1283ZM11.0402 27.0002C10.942 27.0856 10.848 27.1732 10.7604 27.2629C10.4679 27.5511 10.2373 27.8522 10.06 28.1576C9.32118 27.3825 8.6656 26.5368 8.10185 25.6229C8.04206 25.5289 7.98868 25.4328 7.93102 25.3346C8.20435 24.8434 8.59727 24.3758 9.09269 23.9402C9.63295 24.9929 10.2842 26.0201 11.0402 27.0002ZM11.5826 23.8078C11.9072 24.5381 12.2659 25.247 12.6567 25.9282C12.0929 26.2186 11.589 26.5432 11.1619 26.8956C10.4081 25.9154 9.75467 24.8862 9.21868 23.8313C9.74399 23.3914 10.3761 22.9835 11.0957 22.6226C11.2473 23.0219 11.4096 23.4148 11.5826 23.8078ZM14.2241 23.2504C14.4206 23.8761 14.6298 24.4868 14.8476 25.0805C14.1045 25.294 13.419 25.5567 12.8019 25.8599C12.4133 25.1787 12.0524 24.474 11.7278 23.7416C11.5527 23.3486 11.3925 22.9515 11.2409 22.5479C11.9904 22.1848 12.8318 21.8645 13.7479 21.6019C13.8931 22.1464 14.049 22.6995 14.2241 23.2504ZM16.7716 20.9719C16.9339 22.2147 17.124 23.4255 17.3333 24.5616C16.5197 24.6726 15.7445 24.8306 15.0206 25.0314C14.6106 23.9316 14.2348 22.7571 13.9145 21.5549C14.8049 21.3051 15.7616 21.1086 16.7716 20.9719ZM16.5624 19.1931C16.6179 19.7334 16.682 20.2758 16.7482 20.8096C15.7402 20.9442 14.7729 21.1406 13.8696 21.3926C13.7329 20.8737 13.607 20.3463 13.4938 19.8188C14.4483 19.5519 15.4776 19.3383 16.5624 19.1931ZM16.3809 17.2093C16.4086 17.5852 16.4385 17.929 16.4663 18.2343C16.4898 18.4991 16.5175 18.766 16.5453 19.0308C15.4605 19.1739 14.4227 19.3853 13.4575 19.6544C13.3315 19.0607 13.2204 18.4671 13.1308 17.8734C14.1429 17.5894 15.2341 17.3652 16.3809 17.2093ZM16.3702 17.0492C15.2235 17.2008 14.128 17.4229 13.1051 17.709C12.9364 16.6007 12.8339 15.5031 12.8169 14.4461C13.8739 14.1429 15.0206 13.9016 16.2292 13.7371C16.2399 14.9308 16.2997 16.0861 16.3702 17.0492ZM20.026 16.8036C18.8174 16.8057 17.6344 16.8847 16.5004 17.03C16.4172 15.8939 16.3681 14.7792 16.3595 13.7201C17.5297 13.5642 18.7597 13.483 20.026 13.4788V16.8036ZM23.7139 17.0364C22.5821 16.889 21.397 16.8079 20.1862 16.8036V13.4788C21.4461 13.4809 22.6782 13.5642 23.857 13.7179C23.8484 14.7792 23.7993 15.896 23.7139 17.0364ZM23.8463 17.0534C23.9167 16.0882 23.9744 14.933 23.9872 13.735C25.1895 13.8973 26.334 14.1343 27.3996 14.4397C27.3804 15.501 27.2779 16.6071 27.1092 17.7218C26.0885 17.4335 24.993 17.2072 23.8463 17.0534ZM23.6712 19.0308C23.6968 18.766 23.7246 18.4991 23.7502 18.2343C23.7758 17.9311 23.8057 17.5916 23.8335 17.2179C24.9674 17.3716 26.0586 17.6001 27.0836 17.8927C26.9918 18.4799 26.8828 19.0671 26.7569 19.6544C25.7916 19.3853 24.7538 19.1739 23.6712 19.0308ZM23.4662 20.8096C23.5324 20.2736 23.5964 19.7334 23.6541 19.1889C24.7325 19.3341 25.7639 19.5412 26.7248 19.8103C26.6095 20.342 26.4835 20.8716 26.3469 21.3926C25.4414 21.1406 24.4762 20.9442 23.4662 20.8096ZM22.8811 24.5616C23.0903 23.4234 23.2825 22.2126 23.4448 20.9698C24.4485 21.1043 25.4094 21.2986 26.3041 21.5485C25.9817 22.755 25.6037 23.9316 25.1959 25.0335C24.4698 24.8306 23.6947 24.6726 22.8811 24.5616ZM23.7502 28.3797C23.2377 28.2366 22.691 28.1234 22.1187 28.0423C22.3771 27.0643 22.627 25.9368 22.8554 24.7196C23.6562 24.8285 24.4228 24.9844 25.1403 25.183C24.7026 26.3532 24.2285 27.4358 23.7502 28.3797ZM25.277 28.952C24.8627 28.7513 24.41 28.5762 23.9189 28.4288C24.4036 27.4764 24.8756 26.3938 25.3112 25.23C26.0458 25.4414 26.727 25.7019 27.3356 25.9987C26.7227 27.0536 26.0308 28.0423 25.277 28.952ZM25.4222 29.0267C26.176 28.117 26.8658 27.1262 27.4786 26.0713C28.0381 26.3532 28.5335 26.6756 28.9542 27.0258C28.9435 27.0429 28.9307 27.0557 28.9179 27.0728C28.1662 28.0295 27.3313 28.9135 26.4536 29.6908C26.1568 29.4474 25.8109 29.2232 25.4222 29.0267ZM23.8441 28.574C24.3225 28.715 24.7688 28.8815 25.1702 29.0758C24.4357 29.9471 23.6413 30.7436 22.7935 31.4483C22.5992 31.3543 22.3878 31.271 22.1614 31.2006C22.7102 30.5557 23.2847 29.6524 23.8441 28.574ZM22.0782 28.2003C22.6376 28.2772 23.1736 28.3882 23.6754 28.527C23.1053 29.6289 22.5309 30.5322 21.9927 31.1515C21.7109 31.0746 21.4119 31.0127 21.1001 30.97C21.4226 30.3485 21.7557 29.3897 22.0782 28.2003ZM20.1862 28.0701C20.7841 28.0701 21.3692 28.1106 21.9308 28.179C21.602 29.3705 21.2624 30.3293 20.9272 30.9507C20.688 30.923 20.4403 30.9102 20.1862 30.908V28.0701ZM19.2872 30.9507C18.9519 30.3293 18.6124 29.3705 18.2857 28.179C18.8409 28.1085 19.426 28.0701 20.026 28.0679V30.908C19.7762 30.9102 19.5263 30.923 19.2872 30.9507ZM18.2237 31.1515C17.6856 30.5322 17.1112 29.6289 16.541 28.527C17.0407 28.3904 17.5746 28.2793 18.1383 28.2003C18.4586 29.3919 18.7917 30.3485 19.1163 30.97C18.8024 31.0105 18.5035 31.0725 18.2237 31.1515ZM17.4229 31.4483C16.5752 30.7436 15.7808 29.9471 15.0441 29.078C15.4477 28.8858 15.8919 28.7171 16.3723 28.574C16.9318 29.6524 17.5062 30.5557 18.0529 31.1984C17.8265 31.271 17.6151 31.3522 17.4229 31.4483ZM14.7921 29.0246C14.4056 29.2232 14.0575 29.4474 13.7607 29.6887C12.8831 28.9114 12.0481 28.0295 11.2986 27.0728C11.2836 27.0557 11.2708 27.0408 11.2601 27.0237C11.6765 26.6778 12.1741 26.3596 12.7378 26.0756C13.3507 27.1283 14.0383 28.117 14.7921 29.0246ZM16.2976 28.4288C15.8064 28.574 15.3516 28.7491 14.9395 28.9498C14.1857 28.0423 13.4959 27.0557 12.8831 26.003C13.4874 25.7083 14.1686 25.4499 14.9053 25.2364C15.3409 26.3959 15.8128 27.4785 16.2976 28.4288ZM18.0956 28.0423C17.5233 28.1234 16.9788 28.2366 16.4663 28.3797C15.9879 27.4358 15.516 26.3532 15.0783 25.1851C15.7915 24.9886 16.556 24.8328 17.361 24.7217C17.5895 25.9368 17.8394 27.0643 18.0956 28.0423ZM20.026 24.5381V27.9078C19.4132 27.9099 18.8174 27.9526 18.2429 28.0231C17.9824 27.0472 17.7304 25.9197 17.4998 24.7025C18.307 24.5979 19.1548 24.5423 20.026 24.5381ZM20.026 20.7498V24.3779C19.1484 24.3801 18.2899 24.4377 17.4699 24.5423C17.2564 23.4042 17.0663 22.1913 16.904 20.9527C17.9013 20.8225 18.9476 20.7541 20.026 20.7498ZM20.026 18.9561V20.5897C18.9476 20.5918 17.8949 20.6623 16.8827 20.7904C16.8122 20.2566 16.7482 19.7163 16.6905 19.1718C17.7582 19.0372 18.875 18.9604 20.026 18.9561ZM20.026 18.7959C18.8772 18.7981 17.7518 18.8728 16.6756 19.0116C16.6136 18.4052 16.5581 17.7944 16.5133 17.1922C17.6344 17.047 18.8131 16.968 20.026 16.9638V18.7959ZM20.1862 18.7959V16.9659C21.382 16.9702 22.5629 17.0534 23.7011 17.2008C23.6584 17.8008 23.6028 18.4073 23.5388 19.0116C22.4625 18.8728 21.3372 18.7981 20.1862 18.7959ZM20.1862 20.5897V18.9561C21.3329 18.9604 22.4519 19.033 23.526 19.1696C23.4683 19.7142 23.4042 20.2566 23.3338 20.7926C22.3216 20.6623 21.2667 20.5918 20.1862 20.5897ZM20.1862 24.3779V20.7498C21.2603 20.752 22.3088 20.8225 23.3124 20.9506C23.1501 22.1913 22.9579 23.4042 22.7465 24.5445C21.9244 24.4377 21.0638 24.3801 20.1862 24.3779ZM20.1862 24.5381C21.0553 24.5423 21.9031 24.5957 22.7166 24.7004C22.486 25.9197 22.234 27.0472 21.9714 28.0252C21.397 27.9526 20.799 27.9099 20.1862 27.9078V24.5381ZM16.7909 31.8412C15.8022 31.3052 14.8156 30.6112 13.8803 29.7933C14.1686 29.5627 14.5102 29.347 14.8967 29.1506C15.6313 30.0218 16.4236 30.8162 17.2671 31.5273C17.0898 31.6213 16.9297 31.7259 16.7909 31.8412ZM22.9473 31.5273C23.7929 30.8183 24.5851 30.0218 25.3176 29.1506C25.6998 29.347 26.0394 29.5627 26.3298 29.7997C25.3945 30.6133 24.4122 31.3073 23.4235 31.8433C23.2847 31.728 23.1266 31.6234 22.9473 31.5273ZM21.7813 35.0742C21.619 35.0379 21.4632 34.9525 21.3137 34.8265C21.5785 34.7817 21.8283 34.7262 22.0653 34.6578C22.3728 34.7817 22.6761 34.8564 23.0007 34.8863C22.5992 34.9653 22.1913 35.0272 21.7813 35.0742ZM23.4128 33.667C22.7999 34.282 21.4995 34.677 20.1072 34.677C18.7127 34.677 17.4144 34.282 16.7994 33.667C16.5624 33.43 16.4407 33.1737 16.4407 32.9132C16.4407 31.9373 18.0849 31.1451 20.1072 31.1451C21.4995 31.1451 22.7999 31.5444 23.4128 32.1572C23.652 32.3964 23.7737 32.6505 23.7737 32.9132C23.7737 33.1737 23.652 33.43 23.4128 33.667ZM7.48258 26.9361C7.49112 26.4429 7.61711 25.9645 7.8456 25.5012C7.88404 25.5716 7.92248 25.64 7.96519 25.7083C8.54388 26.6457 9.22081 27.5148 9.98102 28.3092C9.79737 28.6701 9.69274 29.0417 9.66711 29.4218C8.87915 28.7171 8.13175 27.895 7.48258 26.9361ZM9.81873 29.5584C9.82941 29.1698 9.9255 28.794 10.1006 28.4331C10.9377 29.283 11.8751 30.0496 12.9023 30.7158C12.772 30.9742 12.7015 31.239 12.6823 31.5102C11.7321 31.0105 10.7498 30.3678 9.81873 29.5584ZM13.5792 33.2079C13.4148 33.0456 13.2802 32.8769 13.1713 32.706C14.2668 33.1032 15.3644 33.3467 16.3446 33.4577C16.4001 33.5623 16.4684 33.6606 16.556 33.7609C15.6676 33.7994 14.7003 33.6606 13.765 33.383C13.7009 33.3253 13.6369 33.2677 13.5792 33.2079ZM15.9431 34.5681C15.7872 34.5147 15.6335 34.4592 15.484 34.3994C16.0008 34.4571 16.5325 34.4229 17.3311 34.3311C17.5084 34.4229 17.6984 34.5062 17.9056 34.5745C17.4678 34.724 17.03 34.7689 16.4962 34.7197C16.494 34.7197 16.4898 34.7197 16.4898 34.7197C16.3061 34.6728 16.1246 34.6215 15.9431 34.5681ZM24.2691 34.5681C24.0876 34.6215 23.9082 34.6728 23.7246 34.7197C23.7224 34.7197 23.7224 34.7197 23.7203 34.7197C23.1864 34.7689 22.7529 34.724 22.3173 34.5767C22.5245 34.5062 22.7166 34.4229 22.8918 34.3332C23.684 34.4229 24.2136 34.4571 24.7282 34.3994C24.5809 34.4592 24.425 34.5147 24.2691 34.5681ZM26.4472 33.383C25.5119 33.6606 24.5467 33.7994 23.6626 33.7609C23.7481 33.6606 23.8164 33.5623 23.874 33.4577C24.8499 33.3467 25.9475 33.1054 27.043 32.7082C26.932 32.8769 26.7974 33.0456 26.6351 33.2079C26.5753 33.2677 26.5113 33.3253 26.4472 33.383ZM27.5299 31.5123C27.5128 31.239 27.4402 30.9764 27.3099 30.7158C28.3392 30.0496 29.2766 29.2851 30.1137 28.4331C30.2931 28.7982 30.3849 29.1762 30.3935 29.5606C29.4624 30.3678 28.4801 31.0127 27.5299 31.5123ZM30.5472 29.4239C30.5216 29.0438 30.417 28.6722 30.2312 28.3114C30.9957 27.5148 31.6726 26.6457 32.2513 25.7083C32.2919 25.64 32.3303 25.5716 32.3709 25.5012C32.6015 25.9688 32.7232 26.4493 32.7296 26.9404C32.0804 27.8971 31.3352 28.7192 30.5472 29.4239ZM32.8791 26.7077C32.8407 26.24 32.7019 25.783 32.4712 25.3367C32.7211 24.9011 32.9517 24.4569 33.1524 24.0042C33.4065 24.5125 33.5347 25.0292 33.5411 25.5609C33.3361 25.9624 33.114 26.3446 32.8791 26.7077ZM32.3388 20.2929C31.7302 19.7782 31.0021 19.3106 30.1821 18.8942C30.3935 17.7902 30.5109 16.6968 30.5259 15.6483C31.3779 16.0818 32.1253 16.5751 32.7467 17.1154C32.7467 18.0891 32.6271 19.0949 32.3815 20.122C32.3687 20.1797 32.3538 20.2352 32.3388 20.2929ZM25.1895 7.26896C25.6272 7.66188 25.9988 8.14448 26.3084 8.7125C25.4158 8.46693 24.4634 8.27474 23.4683 8.14234C23.321 7.61703 23.1395 7.16005 22.9131 6.79703C23.7075 6.90807 24.4698 7.06609 25.1895 7.26896ZM15.0206 7.27537C15.7381 7.0725 16.5047 6.91234 17.3012 6.79917C17.0749 7.16219 16.8955 7.61917 16.7482 8.14234C15.7531 8.27688 14.8007 8.46906 13.9081 8.7125C14.2134 8.15089 14.585 7.66828 15.0206 7.27537ZM7.83279 20.122C7.58935 19.0949 7.46977 18.087 7.46763 17.1132C8.08263 16.5815 8.83003 16.0904 9.68847 15.6547C9.70555 16.6947 9.82086 17.7752 10.0301 18.8728C9.208 19.285 8.47982 19.7505 7.86909 20.263C7.85628 20.216 7.8456 20.169 7.83279 20.122ZM6.01982 23.9145C6.01982 23.3486 6.15649 22.7998 6.41701 22.2724C6.5729 22.7913 6.76081 23.3038 6.97862 23.8099C6.72451 24.2797 6.57503 24.7644 6.52592 25.2577C6.34227 24.8712 6.17357 24.4697 6.02409 24.0469C6.02196 24.0042 6.01982 23.9594 6.01982 23.9145ZM6.78003 26.4301C6.73732 26.2656 6.70743 26.1012 6.69034 25.9346C6.88894 26.2998 7.09821 26.6479 7.32029 26.9789C7.32029 26.981 7.32029 26.9831 7.32029 26.9853C7.32029 27.2202 7.34805 27.4551 7.3993 27.6878C7.17081 27.2778 6.96368 26.8593 6.78003 26.4301ZM8.43711 29.2787C8.42644 29.268 8.41576 29.2595 8.40295 29.2552C8.18513 28.9605 7.98227 28.6573 7.79008 28.3455C7.62138 27.9782 7.51888 27.6024 7.49112 27.2223C8.14029 28.1469 8.87915 28.9434 9.65644 29.6268C9.65857 30.0026 9.73972 30.3742 9.89774 30.7351C9.35961 30.308 8.86206 29.8254 8.43711 29.2787ZM10.9697 31.9394C10.7583 31.7387 10.5725 31.5316 10.4188 31.318C11.211 31.854 12.0652 32.2832 12.93 32.6164C13.0496 32.8406 13.2098 33.0563 13.4148 33.2677C12.7528 33.0392 12.1164 32.7402 11.5441 32.3836C11.3498 32.2405 11.1598 32.0953 10.9697 31.9394ZM29.2446 31.9394C29.0524 32.0975 28.8538 32.2491 28.6552 32.3943C28.0829 32.7509 27.4487 33.0456 26.791 33.2719C26.9918 33.0627 27.154 32.8448 27.2779 32.6185C28.1427 32.2875 28.999 31.8583 29.7891 31.3223C29.6375 31.5337 29.4539 31.7408 29.2446 31.9394ZM31.8092 29.2552C31.7986 29.2595 31.7879 29.268 31.7794 29.2787C31.3523 29.8275 30.8526 30.3101 30.3145 30.7393C30.4725 30.3763 30.5536 30.0026 30.5558 29.6268C31.3331 28.9456 32.0719 28.1491 32.7211 27.2287C32.6933 27.6088 32.5887 27.9825 32.4242 28.3498C32.2299 28.6594 32.0271 28.9605 31.8092 29.2552ZM32.8129 27.6878C32.8641 27.4572 32.8919 27.2202 32.8919 26.9853C33.114 26.6521 33.3233 26.3062 33.5219 25.941C33.5048 26.1055 33.4749 26.2678 33.4343 26.4322C33.2485 26.8593 33.0414 27.28 32.8129 27.6878ZM33.3617 14.7451C33.0905 14.3948 32.7659 14.0596 32.3986 13.7393C32.2705 13.3442 32.121 12.9534 31.9481 12.5733C32.2128 12.8274 32.4499 13.0922 32.6506 13.3656C32.9154 13.8119 33.1482 14.2731 33.3617 14.7451ZM28.9115 9.65849C28.1833 9.31682 27.3825 9.01787 26.522 8.77229C26.2422 8.2299 25.9091 7.76224 25.5204 7.36292C26.0927 7.54016 26.633 7.74729 27.1348 7.98005C27.3313 8.08896 27.5235 8.2 27.7157 8.31745C28.1684 8.68901 28.5677 9.13745 28.9115 9.65849ZM22.3045 6.33365C22.3963 6.40839 22.4818 6.49167 22.5672 6.59203C21.7963 6.49807 20.9998 6.44896 20.1862 6.44469V6.17135C20.9015 6.17349 21.6084 6.22901 22.3045 6.33365ZM20.026 6.16922V6.44469C19.2167 6.44896 18.4181 6.50021 17.6472 6.59417C17.7304 6.4938 17.818 6.40839 17.9098 6.33365C18.6017 6.22901 19.3085 6.17349 20.026 6.16922ZM7.57227 13.3592C7.773 13.0901 8.00362 12.8274 8.26415 12.5797C8.08904 12.9641 7.93956 13.3592 7.81144 13.7606C7.43774 14.0831 7.11529 14.4247 6.84623 14.7728C7.06404 14.2859 7.30534 13.814 7.57227 13.3592ZM5.59274 20.3954C5.6205 19.9918 5.71446 19.5946 5.87461 19.2102C5.928 20.1605 6.09029 21.1086 6.35295 22.0439C6.08388 22.5351 5.92586 23.039 5.87675 23.5601C5.68883 22.6183 5.58847 21.651 5.58847 20.6708C5.58847 20.579 5.5906 20.4872 5.59274 20.3954ZM5.3429 20.6367C5.3429 20.6473 5.34503 20.6559 5.3493 20.6644C5.3493 20.6666 5.34717 20.6687 5.34717 20.6708C5.34717 24.6085 6.88253 28.3114 9.66925 31.0959C12.4581 33.8805 16.1631 35.4138 20.1072 35.4138C28.2388 35.4138 34.8565 28.8068 34.865 20.6836C34.8714 20.6687 34.8757 20.6538 34.8757 20.6367C34.8757 20.5064 34.8672 20.3804 34.8544 20.2523C34.7497 16.4726 33.2314 12.9321 30.5429 10.2479C27.7541 7.46115 24.0491 5.92792 20.1072 5.92792C16.1652 5.92792 12.4581 7.46115 9.66925 10.2479C6.96368 12.9492 5.44326 16.5153 5.35784 20.3249C5.34717 20.4295 5.3429 20.532 5.3429 20.6367Z" fill="white"></path></g><path d="M35.732 23.5429C35.5078 23.5622 35.3626 23.7116 35.4074 23.8761C35.4544 24.0426 35.6722 24.1601 35.8964 24.143C37.4617 24.0106 38.7194 23.7757 39.5864 23.4383C40.5046 23.0796 41.0086 22.6034 41.0086 22.0097C41.0086 20.7776 38.6575 19.349 34.8565 18.0357C31.19 16.7694 26.129 15.5693 20.5492 14.7429C17.7283 14.3265 15.0462 14.0425 12.6097 13.8866C9.08199 13.6602 6.06037 13.7051 3.87798 14.0019C1.56318 14.3158 0.151673 14.9329 0.0064649 15.8405C-0.0020768 15.8939 -0.00634766 15.9473 -0.00634766 15.9985C-0.00634766 16.511 0.375892 17.0449 1.08272 17.5851C1.76391 18.0998 2.75475 18.6315 3.99969 19.1589C4.20469 19.2444 4.45454 19.2016 4.5549 19.0564C4.65527 18.9155 4.57199 18.7297 4.36699 18.6422C3.19678 18.1489 2.27214 17.6556 1.65928 17.1879C1.11475 16.7758 0.822194 16.3914 0.822194 16.0519C0.822194 16.0199 0.826465 15.99 0.830736 15.9622C0.933236 15.3237 2.12266 14.8625 4.09365 14.5956C6.19917 14.3073 9.14818 14.2688 12.6097 14.4888C15.0206 14.6425 17.6728 14.9223 20.4531 15.3365C25.9667 16.1523 30.9551 17.3332 34.5596 18.576C38.0297 19.7761 40.1779 20.9975 40.1779 21.9563C40.1779 22.3258 39.8149 22.6418 39.1487 22.9002C38.365 23.2034 37.199 23.4191 35.732 23.5429Z" fill="white"></path><mask id="mask1_162_338" style="mask-type:luminance" maskUnits="userSpaceOnUse" x="31" y="5" width="9" height="8"><path d="M31.7067 5.51581H39.36V12.5734H31.7067V5.51581Z" fill="white"></path></mask><g mask="url(#mask1_162_338)"><path fill-rule="evenodd" clip-rule="evenodd" d="M35.3475 5.59058H35.3667C35.5077 7.42917 36.9747 8.89834 38.8154 9.035V9.05849C36.9747 9.19516 35.5077 10.6643 35.3667 12.5029H35.3475C35.2066 10.6643 33.7395 9.19516 31.8988 9.05849V9.035C33.7395 8.89834 35.2066 7.42917 35.3475 5.59058Z" fill="white"></path></g><path fill-rule="evenodd" clip-rule="evenodd" d="M38.8711 11.9327H38.8818C38.9394 12.7164 39.563 13.34 40.3445 13.3976V13.4083C39.563 13.466 38.9394 14.0895 38.8818 14.8689H38.8711C38.8134 14.0895 38.1878 13.466 37.4041 13.4083V13.3976C38.1878 13.34 38.8134 12.7164 38.8711 11.9327Z" fill="white"></path></g><defs><clipPath id="clip0_162_338"><rect width="41" height="41" fill="white"></rect></clipPath></defs></svg>