<svg xmlns="http://www.w3.org/2000/svg" xmlns:xlink="http://www.w3.org/1999/xlink" width="100" viewBox="0 0 75 74.999997" height="100" preserveAspectRatio="xMidYMid meet"><defs><clipPath id="b6c9cded71"><path d="M 47 7.195312 L 74.625 7.195312 L 74.625 22 L 47 22 Z M 47 7.195312 " clip-rule="nonzero"></path></clipPath><clipPath id="a5f634ec74"><path d="M 59 7.195312 L 74.625 7.195312 L 74.625 34 L 59 34 Z M 59 7.195312 " clip-rule="nonzero"></path></clipPath><clipPath id="67cbdd8e1e"><path d="M 0.375 60 L 9 60 L 9 67.945312 L 0.375 67.945312 Z M 0.375 60 " clip-rule="nonzero"></path></clipPath></defs><g clip-path="url(#b6c9cded71)"><path fill="#ffffff" d="M 74.023438 7.390625 L 58.714844 21.511719 C 58.566406 21.347656 58.363281 21.230469 58.132812 21.1875 L 48.53125 19.421875 C 47.519531 19.238281 47.375 17.84375 48.328125 17.457031 L 73.121094 7.332031 C 73.449219 7.199219 73.769531 7.242188 74.023438 7.390625 Z M 74.023438 7.390625 " fill-opacity="1" fill-rule="nonzero"></path></g><g clip-path="url(#a5f634ec74)"><path fill="#ffffff" d="M 74.46875 7.757812 L 59.421875 22.160156 C 59.578125 22.320312 59.683594 22.53125 59.710938 22.761719 L 60.875 32.457031 C 60.996094 33.476562 62.378906 33.707031 62.824219 32.78125 L 74.46875 8.664062 C 74.621094 8.34375 74.601562 8.023438 74.46875 7.757812 Z M 74.46875 7.757812 " fill-opacity="1" fill-rule="nonzero"></path></g><path fill="#ffffff" d="M 8.40625 60.953125 C 8.292969 60.902344 8.1875 60.820312 8.117188 60.710938 C 7.925781 60.414062 8.007812 60.019531 8.304688 59.824219 C 8.324219 59.8125 8.84375 59.476562 9.773438 58.902344 C 10.074219 58.71875 10.464844 58.8125 10.652344 59.109375 C 10.835938 59.410156 10.742188 59.804688 10.441406 59.988281 C 9.527344 60.554688 9.003906 60.894531 9 60.898438 C 8.816406 61.015625 8.59375 61.03125 8.40625 60.953125 Z M 11.324219 59.148438 C 11.203125 59.097656 11.09375 59.007812 11.023438 58.886719 C 10.839844 58.582031 10.9375 58.191406 11.242188 58.007812 C 11.722656 57.71875 12.222656 57.425781 12.71875 57.132812 C 13.023438 56.957031 13.414062 57.058594 13.589844 57.363281 C 13.769531 57.667969 13.667969 58.058594 13.363281 58.238281 C 12.871094 58.523438 12.378906 58.816406 11.898438 59.105469 C 11.71875 59.214844 11.503906 59.222656 11.324219 59.148438 Z M 14.273438 57.417969 C 14.148438 57.367188 14.039062 57.273438 13.964844 57.148438 C 13.789062 56.839844 13.894531 56.449219 14.203125 56.273438 C 14.695312 55.992188 15.199219 55.710938 15.695312 55.433594 C 16.003906 55.261719 16.394531 55.371094 16.566406 55.679688 C 16.738281 55.988281 16.625 56.375 16.320312 56.546875 C 15.824219 56.824219 15.328125 57.105469 14.835938 57.382812 C 14.65625 57.488281 14.449219 57.492188 14.273438 57.417969 Z M 17.257812 55.757812 C 17.128906 55.703125 17.015625 55.605469 16.941406 55.472656 C 16.773438 55.160156 16.886719 54.773438 17.199219 54.605469 C 17.703125 54.332031 18.210938 54.058594 18.710938 53.796875 C 19.019531 53.628906 19.40625 53.75 19.574219 54.0625 C 19.738281 54.371094 19.617188 54.757812 19.308594 54.925781 C 18.8125 55.1875 18.308594 55.457031 17.808594 55.726562 C 17.632812 55.824219 17.429688 55.828125 17.257812 55.757812 Z M 20.273438 54.160156 C 20.140625 54.105469 20.023438 54.003906 19.953125 53.863281 C 19.792969 53.550781 19.914062 53.164062 20.230469 53.003906 C 20.738281 52.738281 21.253906 52.480469 21.757812 52.226562 C 22.074219 52.070312 22.457031 52.199219 22.617188 52.511719 C 22.773438 52.828125 22.644531 53.210938 22.328125 53.371094 C 21.828125 53.621094 21.320312 53.878906 20.8125 54.136719 C 20.640625 54.226562 20.441406 54.230469 20.273438 54.160156 Z M 23.328125 52.636719 C 23.191406 52.578125 23.070312 52.472656 23 52.324219 C 22.847656 52.007812 22.980469 51.625 23.296875 51.472656 C 23.816406 51.21875 24.339844 50.972656 24.847656 50.734375 C 25.167969 50.585938 25.546875 50.726562 25.699219 51.046875 C 25.847656 51.367188 25.707031 51.746094 25.386719 51.894531 C 24.882812 52.128906 24.367188 52.375 23.855469 52.621094 C 23.683594 52.703125 23.492188 52.703125 23.328125 52.636719 Z M 41.964844 59.386719 C 41.679688 59.265625 41.398438 59.128906 41.136719 58.976562 C 40.832031 58.796875 40.730469 58.40625 40.90625 58.101562 C 41.082031 57.796875 41.472656 57.691406 41.777344 57.871094 C 41.992188 57.996094 42.222656 58.105469 42.457031 58.207031 C 42.695312 58.304688 42.945312 58.390625 43.199219 58.464844 C 43.539062 58.5625 43.738281 58.914062 43.640625 59.253906 C 43.542969 59.59375 43.191406 59.789062 42.851562 59.695312 C 42.546875 59.605469 42.25 59.503906 41.964844 59.386719 Z M 44.453125 59.964844 C 44.207031 59.859375 44.042969 59.605469 44.0625 59.324219 C 44.089844 58.972656 44.398438 58.710938 44.75 58.738281 C 45.265625 58.777344 45.804688 58.777344 46.347656 58.730469 C 46.699219 58.699219 47.007812 58.960938 47.039062 59.3125 C 47.070312 59.664062 46.808594 59.972656 46.457031 60.003906 C 45.84375 60.054688 45.234375 60.058594 44.648438 60.011719 C 44.582031 60.003906 44.515625 59.988281 44.453125 59.964844 Z M 39.886719 57.957031 C 39.804688 57.921875 39.726562 57.867188 39.664062 57.800781 C 39.234375 57.335938 38.882812 56.804688 38.613281 56.222656 C 38.464844 55.902344 38.605469 55.523438 38.925781 55.375 C 39.246094 55.226562 39.625 55.367188 39.773438 55.6875 C 39.988281 56.148438 40.265625 56.570312 40.601562 56.933594 C 40.839844 57.195312 40.824219 57.597656 40.566406 57.835938 C 40.375 58.011719 40.109375 58.050781 39.886719 57.957031 Z M 26.425781 51.195312 C 26.28125 51.136719 26.15625 51.023438 26.085938 50.867188 C 25.945312 50.546875 26.085938 50.167969 26.410156 50.023438 C 26.9375 49.789062 27.464844 49.554688 27.980469 49.335938 C 28.304688 49.195312 28.679688 49.347656 28.820312 49.671875 C 28.957031 49.996094 28.808594 50.371094 28.484375 50.511719 C 27.972656 50.726562 27.453125 50.957031 26.929688 51.191406 C 26.765625 51.265625 26.582031 51.261719 26.425781 51.195312 Z M 47.839844 59.6875 C 47.65625 59.609375 47.511719 59.449219 47.460938 59.242188 C 47.382812 58.898438 47.59375 58.554688 47.9375 58.472656 C 48.460938 58.351562 48.976562 58.1875 49.472656 57.992188 C 49.800781 57.859375 50.171875 58.019531 50.300781 58.347656 C 50.433594 58.675781 50.273438 59.046875 49.945312 59.179688 C 49.394531 59.398438 48.816406 59.578125 48.230469 59.71875 C 48.09375 59.75 47.957031 59.734375 47.839844 59.6875 Z M 38.457031 54.921875 C 38.261719 54.839844 38.109375 54.664062 38.070312 54.4375 C 37.976562 53.867188 37.9375 53.253906 37.957031 52.617188 C 37.96875 52.261719 38.261719 51.984375 38.613281 51.996094 C 38.964844 52.007812 39.242188 52.300781 39.234375 52.65625 C 39.214844 53.210938 39.25 53.738281 39.332031 54.226562 C 39.390625 54.574219 39.15625 54.902344 38.808594 54.960938 C 38.683594 54.980469 38.5625 54.964844 38.457031 54.921875 Z M 29.5625 49.855469 C 29.410156 49.792969 29.285156 49.667969 29.21875 49.503906 C 29.085938 49.179688 29.242188 48.804688 29.570312 48.671875 C 30.105469 48.453125 30.644531 48.242188 31.167969 48.042969 C 31.496094 47.914062 31.867188 48.082031 31.992188 48.410156 C 32.121094 48.738281 31.953125 49.109375 31.625 49.234375 C 31.109375 49.433594 30.578125 49.640625 30.050781 49.855469 C 29.886719 49.921875 29.714844 49.917969 29.5625 49.855469 Z M 50.988281 58.421875 C 50.867188 58.371094 50.761719 58.285156 50.6875 58.160156 C 50.507812 57.859375 50.605469 57.464844 50.910156 57.285156 C 51.378906 57.003906 51.808594 56.691406 52.183594 56.355469 C 52.449219 56.121094 52.851562 56.140625 53.085938 56.40625 C 53.320312 56.667969 53.300781 57.074219 53.035156 57.308594 C 52.597656 57.699219 52.101562 58.058594 51.5625 58.382812 C 51.382812 58.488281 51.171875 58.5 50.988281 58.421875 Z M 38.527344 51.535156 C 38.257812 51.421875 38.09375 51.132812 38.144531 50.832031 C 38.242188 50.28125 38.378906 49.703125 38.546875 49.109375 C 38.644531 48.773438 39 48.574219 39.339844 48.671875 C 39.675781 48.769531 39.875 49.125 39.777344 49.464844 C 39.617188 50.011719 39.492188 50.546875 39.402344 51.054688 C 39.34375 51.402344 39.011719 51.632812 38.664062 51.574219 C 38.617188 51.566406 38.570312 51.550781 38.527344 51.535156 Z M 32.75 48.636719 C 32.589844 48.566406 32.457031 48.4375 32.394531 48.261719 C 32.277344 47.929688 32.449219 47.5625 32.78125 47.445312 C 33.332031 47.246094 33.878906 47.058594 34.410156 46.882812 C 34.746094 46.773438 35.105469 46.957031 35.21875 47.292969 C 35.328125 47.625 35.144531 47.988281 34.808594 48.097656 C 34.289062 48.269531 33.75 48.453125 33.210938 48.648438 C 33.054688 48.703125 32.890625 48.695312 32.75 48.636719 Z M 53.492188 56.148438 C 53.453125 56.132812 53.414062 56.113281 53.378906 56.089844 C 53.085938 55.890625 53.011719 55.492188 53.210938 55.199219 C 53.40625 54.910156 53.574219 54.605469 53.699219 54.300781 C 53.761719 54.152344 53.816406 54 53.863281 53.851562 C 53.964844 53.511719 54.320312 53.320312 54.65625 53.421875 C 54.996094 53.523438 55.1875 53.878906 55.085938 54.214844 C 55.027344 54.410156 54.960938 54.605469 54.878906 54.792969 C 54.71875 55.179688 54.511719 55.558594 54.265625 55.921875 C 54.089844 56.175781 53.765625 56.265625 53.492188 56.148438 Z M 35.992188 47.570312 C 35.820312 47.5 35.683594 47.355469 35.625 47.164062 C 35.523438 46.824219 35.71875 46.46875 36.054688 46.367188 C 36.621094 46.203125 37.179688 46.042969 37.71875 45.902344 C 38.0625 45.816406 38.410156 46.019531 38.5 46.363281 C 38.589844 46.703125 38.382812 47.050781 38.042969 47.140625 C 37.515625 47.277344 36.96875 47.429688 36.417969 47.59375 C 36.273438 47.636719 36.125 47.625 35.992188 47.570312 Z M 39.453125 48.261719 C 39.136719 48.128906 38.980469 47.769531 39.101562 47.445312 C 39.191406 47.214844 39.28125 46.980469 39.378906 46.742188 C 39.15625 46.683594 38.96875 46.503906 38.914062 46.261719 C 38.839844 45.914062 39.058594 45.574219 39.402344 45.5 C 39.9375 45.382812 40.460938 45.28125 40.972656 45.195312 C 40.914062 45.183594 40.855469 45.164062 40.800781 45.132812 C 40.488281 44.972656 40.367188 44.589844 40.527344 44.273438 C 40.78125 43.777344 41.058594 43.265625 41.351562 42.753906 C 41.527344 42.445312 41.914062 42.339844 42.222656 42.515625 C 42.527344 42.6875 42.636719 43.078125 42.460938 43.386719 C 42.179688 43.882812 41.910156 44.378906 41.664062 44.859375 C 41.585938 45.007812 41.457031 45.117188 41.308594 45.167969 C 41.574219 45.207031 41.796875 45.414062 41.84375 45.695312 C 41.902344 46.042969 41.667969 46.371094 41.320312 46.429688 C 41.171875 46.453125 41.023438 46.480469 40.871094 46.507812 C 40.78125 46.707031 40.699219 46.902344 40.617188 47.09375 C 40.503906 47.363281 40.398438 47.632812 40.296875 47.898438 C 40.171875 48.226562 39.804688 48.394531 39.476562 48.269531 C 39.46875 48.265625 39.460938 48.265625 39.453125 48.261719 Z M 54.433594 52.941406 C 54.210938 52.847656 54.050781 52.636719 54.039062 52.382812 C 54.015625 51.898438 53.914062 51.402344 53.738281 50.902344 C 53.621094 50.570312 53.792969 50.203125 54.125 50.085938 C 54.457031 49.96875 54.824219 50.140625 54.941406 50.472656 C 55.160156 51.089844 55.289062 51.710938 55.316406 52.320312 C 55.332031 52.671875 55.0625 52.972656 54.707031 52.988281 C 54.609375 52.992188 54.515625 52.976562 54.433594 52.941406 Z M 42.65625 46.15625 C 42.449219 46.066406 42.292969 45.875 42.265625 45.632812 C 42.230469 45.28125 42.484375 44.96875 42.832031 44.929688 C 43.433594 44.863281 44.019531 44.820312 44.578125 44.800781 C 44.933594 44.789062 45.226562 45.066406 45.238281 45.417969 C 45.253906 45.769531 44.976562 46.066406 44.625 46.078125 C 44.097656 46.097656 43.539062 46.136719 42.972656 46.199219 C 42.859375 46.210938 42.753906 46.195312 42.65625 46.15625 Z M 53.34375 49.75 C 53.226562 49.703125 53.121094 49.621094 53.050781 49.503906 C 52.769531 49.0625 52.441406 48.65625 52.074219 48.296875 C 51.820312 48.050781 51.816406 47.648438 52.0625 47.394531 C 52.308594 47.140625 52.714844 47.136719 52.964844 47.382812 C 53.402344 47.808594 53.792969 48.292969 54.128906 48.820312 C 54.316406 49.117188 54.230469 49.511719 53.929688 49.703125 C 53.75 49.816406 53.527344 49.828125 53.34375 49.75 Z M 46.058594 46.046875 C 45.8125 45.945312 45.648438 45.699219 45.664062 45.417969 C 45.6875 45.066406 45.988281 44.800781 46.339844 44.820312 C 46.957031 44.855469 47.550781 44.925781 48.105469 45.027344 C 48.453125 45.089844 48.683594 45.421875 48.621094 45.769531 C 48.554688 46.117188 48.222656 46.347656 47.875 46.285156 C 47.371094 46.191406 46.828125 46.128906 46.265625 46.09375 C 46.191406 46.089844 46.121094 46.074219 46.058594 46.046875 Z M 50.929688 47.394531 C 50.898438 47.382812 50.871094 47.367188 50.84375 47.351562 C 50.539062 47.167969 50.207031 47.003906 49.863281 46.859375 C 49.71875 46.796875 49.570312 46.742188 49.421875 46.6875 C 49.085938 46.570312 48.914062 46.207031 49.03125 45.871094 C 49.148438 45.539062 49.511719 45.367188 49.84375 45.484375 C 50.019531 45.542969 50.191406 45.609375 50.355469 45.679688 C 50.757812 45.847656 51.144531 46.042969 51.503906 46.257812 C 51.804688 46.4375 51.902344 46.832031 51.722656 47.132812 C 51.554688 47.410156 51.214844 47.515625 50.929688 47.394531 Z M 42.53125 42.195312 C 42.5 42.183594 42.46875 42.167969 42.441406 42.148438 C 42.140625 41.964844 42.046875 41.570312 42.234375 41.269531 C 42.527344 40.796875 42.835938 40.308594 43.160156 39.816406 C 43.355469 39.523438 43.75 39.441406 44.046875 39.636719 C 44.339844 39.832031 44.421875 40.226562 44.226562 40.523438 C 43.910156 41 43.605469 41.476562 43.320312 41.941406 C 43.152344 42.210938 42.816406 42.3125 42.53125 42.195312 Z M 44.40625 39.351562 C 44.363281 39.335938 44.324219 39.3125 44.285156 39.285156 C 43.996094 39.082031 43.925781 38.683594 44.128906 38.394531 C 44.449219 37.9375 44.785156 37.46875 45.128906 37 C 45.339844 36.714844 45.738281 36.65625 46.023438 36.863281 C 46.304688 37.070312 46.367188 37.472656 46.160156 37.757812 C 45.820312 38.21875 45.488281 38.679688 45.175781 39.128906 C 45 39.378906 44.675781 39.464844 44.40625 39.351562 Z M 46.421875 36.605469 C 46.371094 36.585938 46.324219 36.558594 46.277344 36.523438 C 45.996094 36.308594 45.945312 35.90625 46.160156 35.628906 C 46.5 35.183594 46.855469 34.730469 47.214844 34.277344 C 47.4375 34 47.839844 33.957031 48.113281 34.175781 C 48.390625 34.394531 48.4375 34.796875 48.214844 35.074219 C 47.859375 35.519531 47.507812 35.96875 47.171875 36.40625 C 46.992188 36.640625 46.683594 36.714844 46.421875 36.605469 Z M 48.542969 33.941406 C 48.488281 33.917969 48.433594 33.886719 48.382812 33.84375 C 48.109375 33.621094 48.070312 33.21875 48.296875 32.945312 C 48.652344 32.515625 49.023438 32.070312 49.394531 31.632812 C 49.625 31.363281 50.027344 31.332031 50.296875 31.558594 C 50.566406 31.789062 50.597656 32.191406 50.371094 32.460938 C 50 32.894531 49.632812 33.332031 49.28125 33.757812 C 49.097656 33.980469 48.796875 34.046875 48.542969 33.941406 Z M 50.75 31.347656 C 50.6875 31.320312 50.628906 31.285156 50.574219 31.238281 C 50.308594 31.003906 50.28125 30.601562 50.515625 30.335938 C 50.882812 29.914062 51.265625 29.484375 51.652344 29.054688 C 51.886719 28.792969 52.289062 28.769531 52.550781 29.007812 C 52.816406 29.242188 52.835938 29.644531 52.601562 29.910156 C 52.21875 30.332031 51.839844 30.761719 51.476562 31.175781 C 51.289062 31.390625 50.996094 31.449219 50.75 31.347656 Z M 53.023438 28.8125 C 52.957031 28.78125 52.894531 28.742188 52.839844 28.691406 C 52.578125 28.453125 52.5625 28.050781 52.800781 27.789062 C 53.179688 27.375 53.574219 26.953125 53.964844 26.535156 C 54.207031 26.28125 54.609375 26.265625 54.867188 26.507812 C 55.125 26.75 55.136719 27.152344 54.894531 27.410156 C 54.507812 27.824219 54.117188 28.242188 53.742188 28.652344 C 53.554688 28.855469 53.265625 28.910156 53.023438 28.8125 Z M 55.355469 26.328125 C 55.285156 26.300781 55.21875 26.257812 55.160156 26.199219 C 54.90625 25.957031 54.898438 25.550781 55.140625 25.296875 C 55.53125 24.890625 55.929688 24.476562 56.332031 24.070312 C 56.578125 23.816406 56.980469 23.8125 57.234375 24.058594 C 57.488281 24.304688 57.492188 24.710938 57.246094 24.960938 C 56.847656 25.367188 56.449219 25.777344 56.0625 26.179688 C 55.875 26.375 55.59375 26.425781 55.355469 26.328125 Z M 55.355469 26.328125 " fill-opacity="1" fill-rule="nonzero"></path><g clip-path="url(#67cbdd8e1e)"><path fill="#ffffff" d="M 4.078125 60.742188 L 0.714844 63.632812 C 0.375 63.921875 0.578125 64.480469 1.027344 64.480469 L 3.058594 64.488281 C 3.351562 64.488281 3.578125 64.75 3.535156 65.039062 L 3.238281 67.070312 C 3.175781 67.511719 3.691406 67.796875 4.03125 67.507812 L 7.390625 64.625 C 7.472656 64.554688 7.527344 64.457031 7.550781 64.351562 L 8.292969 60.703125 C 8.347656 60.441406 8.128906 60.199219 7.859375 60.230469 L 4.339844 60.628906 C 4.242188 60.636719 4.152344 60.679688 4.078125 60.742188 Z M 4.078125 60.742188 " fill-opacity="1" fill-rule="nonzero"></path></g></svg>