<svg xmlns="http://www.w3.org/2000/svg" width="40" height="40" viewBox="0 0 40 40" fill="none"><g clip-path="url(#clip0_162_320)"><mask id="mask0_162_320" style="mask-type:luminance" maskUnits="userSpaceOnUse" x="0" y="4" width="40" height="33"><path d="M0 4.80005H40V36.1084H0V4.80005Z" fill="white"></path></mask><g mask="url(#mask0_162_320)"><path d="M39.9001 16.2167C39.7292 10.7021 37.4626 7.98958 35.5917 6.68542C31.9709 4.16042 27.7063 5.29375 26.8876 5.54584C23.3667 6.63333 21.4563 9.54375 20.7896 10.7646C20.0542 9.55625 17.9626 6.63542 14.4355 5.54584C13.6167 5.29375 9.35214 4.16042 5.73131 6.68542C3.86047 7.98958 1.5938 10.7021 1.42297 16.2167L1.42089 16.2667C0.522972 16.8813 -0.00619528 18.1167 5.47515e-05 19.0271C0.0167214 21.0646 1.43964 22.6625 1.48755 22.7146C1.56256 22.8063 2.41672 23.8271 4.27714 24.8C6.11256 27.4583 8.84172 30.0521 12.1834 32.325C12.0917 32.4958 12.0626 32.6625 12.0626 32.7979C12.0626 33.1083 12.1834 33.3854 12.4209 33.6187C12.6126 33.8063 12.8834 33.9667 13.2292 34.0979C13.223 34.1458 13.2105 34.1896 13.2105 34.2396C13.2105 34.5646 13.3438 34.8521 13.6021 35.0917C14.423 35.8521 16.5001 36.0104 18.1001 36.0104C19.0709 36.0104 19.8646 35.9521 20.1001 35.9333C20.3959 35.9479 23.1376 36.0646 24.5001 35.3979C24.5896 35.4 24.6813 35.4021 24.7709 35.4021C28.0251 35.4021 30.898 34.2146 33.098 31.9542C35.2834 29.7104 36.1521 26.4958 36.2834 25.9771C38.7459 22.7979 39.998 19.425 39.9001 16.2167ZM1.9688 22.3C1.95631 22.2854 0.647972 20.8125 0.633388 19.0229C0.627138 18.3125 1.04172 17.3104 1.73131 16.8146C2.60631 17.3417 6.59589 19.3479 15.3626 18.3875C15.1771 19.6229 14.7188 23.275 15.3396 25.8313C5.79172 26.8375 2.01672 22.3583 1.9688 22.3ZM5.46464 25.35C7.18547 26.0521 9.51464 26.6188 12.5605 26.6188C13.5417 26.6188 14.6001 26.5604 15.7334 26.4271L16.3084 26.5167C16.7646 26.8521 17.4271 27.0917 18.0792 27.325C18.1751 27.3604 18.273 27.3958 18.3709 27.4313C16.3417 27.3042 12.9334 27.2542 11.8667 28.2208C11.6209 28.4438 11.4896 28.7208 11.4896 29.025C11.4896 29.3604 11.6271 29.6583 11.8959 29.9083C12.0292 30.0312 12.1959 30.1375 12.3855 30.2313C11.9001 30.5333 11.7771 30.9 11.7771 31.1917C11.7771 31.2188 11.7834 31.2437 11.7855 31.2729C9.22506 29.4417 7.07089 27.425 5.46464 25.35ZM20.2396 18.7875C20.3021 18.8938 20.4188 18.9542 20.5438 18.9396C22.3417 18.7458 27.2501 18.4625 28.3605 19.4667C28.5188 19.6104 28.5376 19.7375 28.5376 19.8188C28.5376 19.9833 28.4709 20.1229 28.3251 20.2583C27.2751 21.2292 23.2084 21.1229 21.7292 21C21.548 20.9792 21.4001 21.1146 21.3876 21.2896C21.373 21.4667 21.5021 21.6208 21.6751 21.6333C21.8959 21.6521 22.7855 21.7208 23.8771 21.7208C24.9896 21.7208 26.3105 21.65 27.3501 21.3833C27.7126 21.4937 28.2396 21.7146 28.2396 22.0688C28.2396 22.2229 28.1771 22.35 28.0417 22.475C27.0459 23.4 23.1709 23.2958 21.7626 23.1792C21.5855 23.1583 21.4355 23.2938 21.4209 23.4688C21.4063 23.6458 21.5355 23.8 21.7105 23.8146C21.9209 23.8313 22.7688 23.8958 23.8084 23.8958C25.1021 23.8958 26.6938 23.7938 27.7355 23.3792C27.9167 23.5229 27.9417 23.65 27.9417 23.7375C27.9417 23.8833 27.8855 24.0063 27.7646 24.1271C27.2001 24.6813 25.423 24.9708 22.9001 24.9167C22.898 24.9167 22.8959 24.9167 22.8938 24.9167C22.723 24.9167 22.5813 25.0542 22.5771 25.2292C22.573 25.4042 22.7126 25.55 22.8876 25.5542C23.0834 25.5583 23.2855 25.5604 23.4896 25.5604C24.5917 25.5604 25.7917 25.4896 26.748 25.2604C26.7167 25.8354 25.6501 26.2375 23.8021 26.3688C23.0126 25.7521 21.7376 24.9583 20.4167 24.9583C19.7001 24.9583 18.9876 24.8083 18.3626 24.6771C17.2667 24.4458 16.2313 24.2292 15.8396 25.1125C15.3876 22.4479 15.9334 18.8229 16.0376 18.1813C16.4001 17.8396 18.1792 16.2479 19.9146 16.2479C20.7251 16.2479 21.498 16.0833 22.1792 15.9396C23.3792 15.6875 23.9209 15.6208 24.0896 16.0458C24.1563 16.2104 24.1251 16.3125 24.098 16.375C23.9042 16.8083 22.9167 17.1604 22.1251 17.4438C21.273 17.7458 20.5355 18.0083 20.2459 18.4458C20.1771 18.5479 20.1751 18.6813 20.2396 18.7875ZM20.1126 35.2958C20.098 35.2938 20.0834 35.2938 20.0688 35.2958C18.7126 35.4083 14.9876 35.5083 14.0313 34.6229C13.9188 34.5167 13.8605 34.4083 13.8501 34.2854C14.6271 34.4708 15.6563 34.5646 16.9355 34.5646C17.1292 34.5646 17.3292 34.5625 17.5355 34.5562C17.7105 34.5542 17.8501 34.4083 17.8459 34.2313C17.8417 34.0562 17.7042 33.9271 17.523 33.9188C15.1001 33.9708 13.4042 33.6938 12.8646 33.1625C12.7501 33.05 12.6959 32.9333 12.6959 32.7979C12.6959 32.7146 12.7209 32.5979 12.8855 32.4646C13.8917 32.8646 15.4209 32.9604 16.6667 32.9604C17.6688 32.9604 18.4834 32.8979 18.6855 32.8813C18.8605 32.8667 18.9896 32.7125 18.9751 32.5375C18.9605 32.3625 18.8126 32.2271 18.6334 32.2458C17.2792 32.3583 13.5542 32.4604 12.5959 31.5729C12.4688 31.4542 12.4105 31.3333 12.4105 31.1896C12.4105 30.8563 12.9084 30.6479 13.2542 30.5417C14.2584 30.7979 15.5292 30.8667 16.598 30.8667C17.6501 30.8667 18.5063 30.8 18.7188 30.7833C18.8938 30.7688 19.023 30.6146 19.0084 30.4396C18.9938 30.2625 18.8438 30.1292 18.6667 30.1479C17.2438 30.2667 13.3313 30.3708 12.323 29.4375C12.1876 29.3104 12.123 29.1792 12.123 29.0229C12.123 28.9479 12.1396 28.8292 12.2896 28.6938C13.3542 27.7292 18.0771 28.0021 19.8063 28.1875C19.9313 28.2 20.048 28.1417 20.1126 28.0354C20.1751 27.9292 20.173 27.7958 20.1042 27.6938C19.823 27.2708 19.1126 27.0167 18.2896 26.7229C17.5292 26.4521 16.5813 26.1146 16.3959 25.7021C16.3688 25.6396 16.3438 25.5479 16.4042 25.3958C16.5646 24.9937 17.0834 25.0583 18.2313 25.3C18.8876 25.4375 19.6334 25.5958 20.4146 25.5958C22.073 25.5958 23.7459 27.1292 24.0896 27.4604C24.2063 28.1375 24.8688 32.2771 24.1667 34.85C22.8876 35.4396 20.1417 35.2958 20.1126 35.2958ZM32.6459 31.5083C30.0855 34.1354 27.0605 34.7479 24.8438 34.7625C25.4167 32.3146 24.9563 28.8646 24.7667 27.6667C30.4646 28.2708 33.5876 27.15 35.5105 26.375C35.1688 27.4708 34.2938 29.8167 32.6459 31.5083ZM24.5271 26.9979C24.5105 26.9813 24.4959 26.9667 24.4751 26.9479C26.4271 26.725 27.3834 26.1625 27.3834 25.2354C27.3834 25.1813 27.3771 25.1271 27.3688 25.075C27.7146 24.9438 28.0042 24.7833 28.2063 24.5813C28.4501 24.3417 28.5751 24.0563 28.5751 23.7375C28.5751 23.5479 28.5209 23.3042 28.3209 23.0667C28.373 23.0271 28.4251 22.9875 28.4709 22.9438C28.7376 22.6979 28.873 22.4021 28.873 22.0688C28.873 21.7646 28.7417 21.3854 28.2271 21.0708C28.4313 20.9708 28.6126 20.8583 28.7542 20.7271C29.0313 20.4708 29.1709 20.1646 29.1709 19.8188C29.1709 19.5083 29.0376 19.2208 28.7834 18.9917C27.6626 17.9771 24.048 18.0458 21.9521 18.1813C22.0813 18.1333 22.2105 18.0875 22.3355 18.0437C23.3355 17.6854 24.3688 17.3167 24.6751 16.6375C24.7917 16.3771 24.7938 16.0979 24.6771 15.8083C24.2938 14.8417 23.2021 15.0708 22.0501 15.3146C21.398 15.4521 20.6584 15.6083 19.9146 15.6083C17.9271 15.6083 16.0105 17.3271 15.6001 17.7167C6.83131 18.7333 2.81881 16.7104 2.05631 16.2625V16.2354C2.21881 10.9875 4.33964 8.42917 6.09172 7.20833C9.47089 4.85208 13.4792 5.91875 14.2501 6.15625C18.3855 7.43333 20.5042 11.5396 20.5251 11.5813C20.5813 11.6917 20.6959 11.7563 20.8167 11.7563C20.9396 11.7521 21.048 11.6771 21.098 11.5646C21.1167 11.5229 22.9396 7.43125 27.073 6.15625C27.8417 5.91875 31.8501 4.85417 35.2292 7.20833C36.9813 8.42917 39.1042 10.9875 39.2667 16.2375C39.3605 19.2896 38.1584 22.5167 35.7917 25.5729L35.5751 25.6604C33.7042 26.4229 30.5771 27.6938 24.5271 26.9979Z" fill="white"></path></g></g><defs><clipPath id="clip0_162_320"><rect width="40" height="40" fill="white"></rect></clipPath></defs></svg>