<svg xmlns="http://www.w3.org/2000/svg" width="29" height="29" viewBox="0 0 29 29" fill="none"><g clip-path="url(#clip0_162_113)"><mask id="mask0_162_113" style="mask-type:luminance" maskUnits="userSpaceOnUse" x="0" y="0" width="29" height="29"><path d="M0 0.942383H29V28.2024H0V0.942383Z" fill="white"></path></mask><g mask="url(#mask0_162_113)"><path d="M4.96625 0.94873H24.0337C24.36 0.94873 24.6817 0.980449 25.0019 1.0454C25.3221 1.10883 25.6318 1.20399 25.9339 1.32936C26.2344 1.45472 26.5214 1.60878 26.7918 1.79003C27.0636 1.97279 27.3144 2.17972 27.5455 2.41081C27.7751 2.64342 27.982 2.89566 28.1632 3.16753C28.3445 3.44092 28.497 3.7279 28.6209 4.03149C28.7463 4.33357 28.8399 4.64623 28.9048 4.96795C28.9683 5.28967 29 5.61441 29 5.94217V23.2032C29 23.531 28.9683 23.8557 28.9048 24.1774C28.8399 24.4991 28.7463 24.8118 28.6209 25.1139C28.497 25.4175 28.3445 25.7045 28.1632 25.9778C27.982 26.2497 27.7751 26.502 27.5455 26.7346C27.3144 26.9657 27.0636 27.1726 26.7918 27.3553C26.5214 27.5381 26.2344 27.6907 25.9339 27.816C25.6318 27.9414 25.3221 28.0365 25.0019 28.1015C24.6817 28.1649 24.36 28.1966 24.0337 28.1966H4.96625C4.64 28.1966 4.31677 28.1649 3.99656 28.1015C3.67635 28.0365 3.36672 27.9414 3.06464 27.816C2.76406 27.6907 2.47708 27.5381 2.20672 27.3553C1.93484 27.1726 1.68411 26.9657 1.45453 26.7346C1.22344 26.502 1.01802 26.2497 0.836771 25.9778C0.655521 25.7045 0.501458 25.4175 0.377604 25.1139C0.25224 24.8118 0.158594 24.4991 0.0951563 24.1774C0.0317187 23.8557 0 23.531 0 23.2032V5.94217C0 5.61441 0.0317187 5.28967 0.0951563 4.96795C0.158594 4.64623 0.25224 4.33357 0.377604 4.03149C0.501458 3.7279 0.655521 3.44092 0.836771 3.16753C1.01802 2.89566 1.22344 2.64342 1.45453 2.41081C1.68411 2.17972 1.93484 1.97279 2.20672 1.79003C2.47708 1.60878 2.76406 1.45472 3.06464 1.32936C3.36672 1.20399 3.67635 1.10883 3.99656 1.0454C4.31677 0.980449 4.64 0.94873 4.96625 0.94873Z" fill="#C68D85"></path></g><path d="M12.177 9.65927C12.0909 9.54901 11.9867 9.4599 11.8628 9.39495C11.739 9.33 11.6091 9.29375 11.4686 9.28469C11.3297 9.27714 11.1952 9.29828 11.0653 9.34964C10.9354 9.39948 10.8222 9.475 10.724 9.5762C9.55341 10.7876 8.05659 13.6015 12.4821 18.1388C12.4821 18.1388 15.6268 21.2517 18.9618 19.11C19.0388 19.0616 19.1083 19.0042 19.1702 18.9393C19.2337 18.8743 19.288 18.8033 19.3334 18.7248C19.3802 18.6478 19.4164 18.5647 19.4436 18.4786C19.4708 18.3925 19.4874 18.3034 19.4935 18.2128C19.4995 18.1221 19.495 18.033 19.4799 17.9439C19.4648 17.8533 19.4406 17.7672 19.4059 17.6841C19.3711 17.5995 19.3258 17.5225 19.2729 17.4485C19.2201 17.376 19.1597 17.3095 19.0902 17.2506L17.9815 16.3036C17.8758 16.213 17.758 16.145 17.6281 16.0982C17.4982 16.0498 17.3638 16.0287 17.2263 16.0302C17.0874 16.0317 16.9545 16.0574 16.8261 16.1088C16.6977 16.1586 16.5814 16.2311 16.4787 16.3232L16.2989 16.4864C16.1932 16.5815 16.0754 16.6585 15.9455 16.7159C15.8171 16.7748 15.6812 16.8111 15.5407 16.8262C15.3987 16.8413 15.2598 16.8353 15.1208 16.8051C14.9818 16.7764 14.8504 16.7265 14.7281 16.6555C13.9925 16.2326 12.9911 15.4698 12.4292 14.2494C12.3598 14.0954 12.316 13.9353 12.2978 13.7661C12.2797 13.5984 12.2888 13.4323 12.3265 13.2677C12.3628 13.103 12.4247 12.9475 12.5123 12.804C12.5999 12.659 12.7072 12.5321 12.8371 12.4248C12.9564 12.3236 13.053 12.2028 13.1271 12.0639C13.2011 11.9249 13.2464 11.7769 13.263 11.6198C13.2796 11.4627 13.266 11.3086 13.2237 11.1561C13.1799 11.0051 13.1104 10.8676 13.0153 10.7422L12.177 9.65927Z" fill="white"></path><path d="M4.85748 25.0429C4.81217 25.0429 4.76988 25.0324 4.7291 25.0112C4.68983 24.9916 4.6566 24.9614 4.62941 24.9251C4.60222 24.8889 4.58561 24.8466 4.57957 24.8028C4.57201 24.7575 4.57655 24.7137 4.59014 24.6699L6.26217 19.6447C6.04769 19.323 5.85285 18.9907 5.67764 18.6463C5.50243 18.302 5.34686 17.9485 5.21092 17.586C5.07649 17.2235 4.96321 16.855 4.87108 16.4789C4.77894 16.1028 4.70946 15.7237 4.66113 15.34C4.6128 14.9564 4.58712 14.5712 4.5841 14.183C4.58108 13.7964 4.60071 13.4112 4.64149 13.0261C4.68378 12.6409 4.74722 12.2603 4.83181 11.8827C4.9179 11.5066 5.02514 11.135 5.15352 10.771C5.28191 10.4055 5.43144 10.0505 5.60212 9.70315C5.77128 9.35575 5.96009 9.01893 6.17003 8.69419C6.37847 8.36945 6.60503 8.0583 6.84972 7.75924C7.09592 7.46169 7.35722 7.17773 7.63514 6.91039C7.91306 6.64304 8.20457 6.39231 8.51118 6.1582C8.81931 5.9256 9.138 5.70961 9.4703 5.51476C9.80108 5.31841 10.1439 5.14169 10.4959 4.98612C10.8478 4.83054 11.2088 4.69612 11.5758 4.58132C11.9444 4.46804 12.3174 4.37591 12.695 4.30643C13.0742 4.23544 13.4548 4.18862 13.8399 4.16294C14.2236 4.13726 14.6072 4.13424 14.9924 4.15388C15.376 4.17351 15.7582 4.2158 16.1373 4.28075C16.5164 4.3457 16.891 4.43179 17.261 4.53903C17.6311 4.64778 17.9921 4.77768 18.347 4.92872C18.702 5.07976 19.0463 5.25044 19.3801 5.44075C19.7155 5.63257 20.0372 5.84252 20.3483 6.0706C20.658 6.30018 20.954 6.54638 21.2364 6.8107C21.5174 7.07351 21.7832 7.35294 22.0324 7.64747C22.2816 7.942 22.5127 8.25013 22.7272 8.57185C22.9402 8.89356 23.135 9.22737 23.3102 9.57174C23.4839 9.91612 23.6395 10.2711 23.7724 10.6336C23.9069 10.9961 24.0201 11.3646 24.1108 11.7407C24.2014 12.1168 24.2709 12.4974 24.3177 12.8811C24.3645 13.2647 24.3902 13.6499 24.3917 14.038C24.3947 14.4247 24.3736 14.8099 24.3313 15.195C24.289 15.5787 24.2256 15.9593 24.138 16.3369C24.0519 16.7145 23.9446 17.0846 23.8147 17.4486C23.6848 17.8126 23.5353 18.169 23.3646 18.5149C23.1939 18.8623 23.0036 19.1976 22.7937 19.5224C22.5837 19.8471 22.3557 20.1583 22.111 20.4558C21.8648 20.7534 21.602 21.0358 21.324 21.3031C21.0461 21.5705 20.7531 21.8197 20.445 22.0523C20.1384 22.2849 19.8182 22.4994 19.4859 22.6942C19.1536 22.8906 18.8107 23.0658 18.4588 23.2199C18.1053 23.3754 17.7459 23.5099 17.3773 23.6216C17.0088 23.7349 16.6357 23.8255 16.2566 23.895C15.879 23.9645 15.4969 24.0113 15.1132 24.0355C14.7296 24.0597 14.3444 24.0612 13.9608 24.0415C13.5756 24.0204 13.195 23.9781 12.8144 23.9116C12.4352 23.8467 12.0622 23.7591 11.6921 23.6503L8.41451 24.321L4.91337 25.0369C4.89524 25.0414 4.87712 25.0429 4.85748 25.0429ZM14.5 4.66893C9.33889 4.66893 5.13993 8.89054 5.13993 14.0788C5.13691 15.0379 5.27889 15.9729 5.56285 16.8882C5.84681 17.802 6.26066 18.6524 6.80592 19.4393C6.85878 19.5178 6.87087 19.6009 6.84066 19.69L5.2804 24.3844L8.30274 23.7651L11.6483 23.0809C11.6951 23.0718 11.742 23.0734 11.7873 23.0885C12.6709 23.3558 13.5756 23.4902 14.5 23.4887C19.6611 23.4887 23.8585 19.2671 23.8585 14.0788C23.8585 8.89054 19.6611 4.66893 14.5 4.66893Z" fill="white"></path></g><defs><clipPath id="clip0_162_113"><rect width="29" height="29" fill="white"></rect></clipPath></defs></svg>