<svg xmlns="http://www.w3.org/2000/svg" width="29" height="29" viewBox="0 0 29 29" fill="none"><g clip-path="url(#clip0_162_108)"><path d="M23.5625 29H5.4375C2.43479 29 0 26.5652 0 23.5625V5.4375C0 2.43479 2.43479 0 5.4375 0H23.5625C26.5652 0 29 2.43479 29 5.4375V23.5625C29 26.5652 26.5652 29 23.5625 29Z" fill="#C68D85"></path><path d="M8.15625 19.9375H9.0625V11.7133L14.5 15.6177L19.9375 11.7133V19.9375H20.8438C21.3573 19.9375 21.75 19.5448 21.75 19.0312V9.96875C21.75 9.71198 21.6533 9.48542 21.4902 9.3238C21.3271 9.16068 21.1005 9.0625 20.8438 9.0625H20.5417L14.5 13.4427L8.45833 9.0625H8.15625C7.89948 9.0625 7.67292 9.15917 7.50979 9.3238C7.34818 9.48542 7.25 9.71198 7.25 9.96875V19.0312C7.25 19.5448 7.6412 19.9375 8.15625 19.9375Z" fill="white"></path></g><defs><clipPath id="clip0_162_108"><rect width="29" height="29" fill="white"></rect></clipPath></defs></svg>