<svg xmlns="http://www.w3.org/2000/svg" width="34" height="34" viewBox="0 0 34 34" fill="none"><g clip-path="url(#clip0_162_220)"><mask id="mask0_162_220" style="mask-type:luminance" maskUnits="userSpaceOnUse" x="0" y="5" width="34" height="24"><path d="M0 5.90405H34V28.0041H0V5.90405Z" fill="white"></path></mask><g mask="url(#mask0_162_220)"><path d="M19.6988 24.9619C19.9343 25.7145 19.9237 26.5379 19.8971 27.3188C19.8865 27.6394 19.3871 27.6394 19.3977 27.3188C19.4225 26.568 19.4402 25.78 19.2047 25.0575C19.0241 24.5068 18.6256 24.0481 18.1156 23.7719C17.549 23.4637 17.0036 23.6444 16.5077 23.995C16.0296 24.335 15.6294 24.7423 15.3284 25.247C15.0326 25.7446 14.7422 26.3785 14.8343 26.9718C14.8821 27.287 14.4004 27.4198 14.3526 27.1046C14.2269 26.2953 14.574 25.4736 15.0149 24.8078C15.3921 24.2376 15.9198 23.7418 16.5166 23.3964C17.1328 23.0405 17.8075 23.0122 18.4273 23.3752C19.0365 23.7294 19.488 24.2925 19.6988 24.9619ZM24.1028 24.1703C23.9204 23.3805 23.6761 22.6173 23.3609 21.87C23.0474 21.128 22.6614 20.4392 22.1036 19.8495C21.59 19.3058 20.9862 18.7976 20.2973 18.493C19.5518 18.1654 18.6965 18.0715 17.889 18.1247C17.0354 18.1813 16.2315 18.4381 15.4346 18.7321C15.0769 18.8631 14.7174 19.0083 14.3916 19.2102C14.0551 19.4192 13.7647 19.6883 13.4973 19.977C12.9749 20.5436 12.4295 21.1192 12.0098 21.7673C11.514 22.5305 11.2147 23.4319 10.8729 24.2695C10.5064 25.169 10.1876 26.1094 9.94502 27.0497C9.86357 27.3596 10.347 27.4924 10.4267 27.1807C10.6286 26.4051 10.8836 25.6259 11.1687 24.8751C11.4502 24.1349 11.746 23.3823 12.0842 22.6669C12.4118 21.9762 12.8846 21.4096 13.3928 20.8429C13.8851 20.2957 14.3438 19.7592 15.0238 19.4351C15.7179 19.1057 16.4989 18.8454 17.255 18.7037C18.036 18.5568 18.886 18.5656 19.6545 18.787C20.3487 18.9853 20.9277 19.4156 21.4484 19.9026C22.0079 20.4268 22.4312 21.0288 22.7535 21.723C23.1147 22.5022 23.3856 23.3168 23.584 24.1508C23.7894 25.0061 23.8886 25.8721 24.0072 26.7433C24.0267 26.8761 24.1985 26.947 24.3153 26.9169C24.4605 26.8779 24.5084 26.7433 24.4906 26.6105C24.3773 25.7924 24.2888 24.976 24.1028 24.1703ZM28.5034 20.9704C28.406 20.6393 28.3475 20.301 28.2926 19.9593C28.2395 19.637 28.1811 19.3147 28.0589 19.0119C27.9367 18.709 27.7755 18.4275 27.6038 18.153C27.2425 17.5775 26.9149 16.9807 26.5448 16.4105C26.1712 15.8314 25.7249 15.3179 25.2291 14.8398C24.7492 14.3758 24.2852 13.8711 23.7575 13.4638C23.2192 13.0477 22.5711 12.8547 21.946 12.6085C21.2854 12.3482 20.586 12.2101 19.906 12.0118C19.5748 11.9161 19.2384 11.8258 18.893 11.7957C18.546 11.7656 18.1989 11.8294 17.8553 11.8772C17.1435 11.9746 16.4351 11.7745 15.7286 11.8913C15.3833 11.948 15.0468 12.0613 14.7174 12.1782C14.3916 12.2915 14.0622 12.3996 13.7435 12.5324C13.0989 12.798 12.4773 13.1203 11.8947 13.5028C11.3298 13.8711 10.7366 14.2483 10.2284 14.6928C9.71836 15.1355 9.31638 15.6898 8.88607 16.2051C8.44867 16.7275 8.05023 17.2605 7.72086 17.8608C7.04794 19.0915 6.61055 20.4515 6.26346 21.8062C6.0793 22.5252 5.9394 23.2512 5.80659 23.9808C5.67377 24.7033 5.54805 25.4205 5.49846 26.1536C5.47367 26.4972 5.4595 26.8389 5.43825 27.1825C5.41877 27.503 5.91992 27.5012 5.9394 27.1825C5.97836 26.506 5.99961 25.826 6.10409 25.1549C6.21388 24.4465 6.34669 23.7364 6.4919 23.0352C6.63179 22.364 6.79825 21.6982 6.99659 21.043C7.18961 20.4002 7.39148 19.7503 7.65357 19.1323C7.91034 18.5302 8.21846 17.9334 8.58679 17.3915C8.95159 16.8532 9.39784 16.3627 9.81221 15.8615C10.2408 15.348 10.6994 14.9248 11.2537 14.5476C11.7902 14.1828 12.3109 13.8021 12.8828 13.4922C13.4938 13.161 14.126 12.9149 14.7794 12.6829C15.0858 12.5749 15.3956 12.4669 15.7144 12.3996C16.0473 12.3287 16.3785 12.35 16.7149 12.3801C17.0549 12.4102 17.3878 12.4314 17.7278 12.3907C18.0643 12.3518 18.399 12.2809 18.739 12.2862C19.0772 12.2915 19.4119 12.3889 19.736 12.481C20.0724 12.5784 20.4106 12.667 20.7489 12.7555C21.3881 12.9202 22.0062 13.1522 22.6189 13.3965C23.2351 13.6427 23.692 14.0394 24.156 14.4998C24.6146 14.9549 25.1034 15.3799 25.5266 15.8704C25.964 16.3769 26.3058 16.9559 26.6351 17.535C26.9468 18.0822 27.3559 18.5904 27.5896 19.1765C27.8234 19.7662 27.8251 20.4214 27.9987 21.0271C28.1935 21.7053 28.4201 22.3499 28.4786 23.0582C28.5335 23.7347 28.537 24.4218 28.5034 25.0982C28.4856 25.44 28.4538 25.7782 28.3989 26.1147C28.3493 26.4281 28.831 26.5645 28.8823 26.2475C28.9956 25.5409 29.024 24.829 29.0204 24.1154C29.0151 23.4035 28.9886 22.6793 28.8097 21.9869C28.7194 21.6451 28.6043 21.3104 28.5034 20.9704ZM33.8105 24.3438C33.7928 23.8179 33.8283 23.292 33.7911 22.7678C33.7202 21.7602 33.5963 20.7579 33.4528 19.7592C33.3785 19.2403 33.2067 18.7462 33.0243 18.2557C32.8525 17.7882 32.6808 17.3207 32.4789 16.8638C32.0592 15.9094 31.6165 14.9425 31.0303 14.0748C30.4672 13.2407 29.8403 12.4686 29.2028 11.6912C28.8947 11.3176 28.6096 10.9245 28.259 10.5898C27.8889 10.2356 27.4798 9.92217 27.0743 9.61051C26.6883 9.31301 26.281 9.05092 25.8648 8.79769C25.4487 8.54269 25.0573 8.25759 24.65 7.98842C23.8354 7.44832 22.8633 7.24113 21.9761 6.84978C21.0446 6.43894 20.0441 6.2105 19.0312 6.11311C18.5194 6.06353 18.0041 6.09717 17.4923 6.0529C16.9681 6.00686 16.4511 5.94842 15.9234 5.9555C15.3939 5.96259 14.8644 5.90769 14.3367 5.97321C13.8621 6.03165 13.384 6.083 12.9147 6.17509C12.4472 6.26894 12.0488 6.46019 11.6344 6.6904C11.2129 6.92415 10.8021 7.0605 10.3311 7.16675C9.91138 7.26061 9.48638 7.36863 9.13575 7.63071C8.79398 7.88748 8.53898 8.23634 8.20075 8.49488C7.82179 8.78353 7.35961 8.9553 6.95763 9.2103C6.55034 9.46707 6.17315 9.79113 5.80482 10.0975C5.43825 10.4021 5.11419 10.7244 4.83263 11.1086C4.54575 11.5 4.26065 11.8789 3.94367 12.2473C3.632 12.6121 3.36107 13.0052 3.05825 13.3771C2.782 13.7171 2.46325 14.0234 2.2295 14.3971C1.69648 15.2471 1.28919 16.1608 1.02357 17.1259C0.887212 17.6182 0.73492 18.1034 0.626899 18.6028C0.515337 19.1234 0.398461 19.6423 0.292211 20.1629C0.0832533 21.167 0.0265866 22.2206 0.0690867 23.2442C0.0921074 23.7736 0.145232 24.3013 0.159399 24.8326C0.171795 25.3355 0.173565 25.8473 0.290441 26.3396C0.398461 26.8018 0.598566 27.2356 0.71367 27.696C0.791587 28.0077 1.27502 27.8749 1.19711 27.5632C1.08377 27.1152 0.890753 26.6902 0.780961 26.2422C0.660545 25.757 0.67117 25.2487 0.657003 24.7529C0.642837 24.2358 0.587941 23.7205 0.568461 23.2034C0.548983 22.7005 0.572003 22.1923 0.595024 21.6911C0.641066 20.6764 0.90492 19.6865 1.11919 18.6967C1.22367 18.2097 1.37242 17.7369 1.50523 17.257C1.63982 16.77 1.79034 16.3007 2.01346 15.8456C2.22065 15.4242 2.43846 14.985 2.697 14.5919C2.93429 14.2342 3.25304 13.9384 3.51513 13.6002C4.07825 12.8671 4.68211 12.1676 5.22398 11.4168C5.49846 11.036 5.82607 10.7244 6.18732 10.4251C6.55388 10.1223 6.92398 9.80707 7.33482 9.56446C7.72086 9.33603 8.14409 9.16071 8.50179 8.88623C8.82586 8.64009 9.072 8.31248 9.39075 8.06103C9.73784 7.78832 10.1841 7.7104 10.6038 7.61478C11.0412 7.51738 11.4361 7.3704 11.8274 7.15436C12.2276 6.93301 12.596 6.7453 13.0475 6.65498C13.5221 6.56113 14.0126 6.49738 14.4943 6.45311C14.9954 6.40707 15.5001 6.46019 16.0013 6.45134C16.5024 6.44425 16.9947 6.508 17.4923 6.5505C18.0041 6.59478 18.5194 6.56113 19.0312 6.61071C19.527 6.6603 20.0352 6.76123 20.5222 6.86925C21.0039 6.97728 21.4466 7.15967 21.8964 7.35623C22.332 7.54926 22.7783 7.69978 23.2298 7.85561C23.6814 8.01321 24.0922 8.20978 24.4871 8.47894C24.882 8.74811 25.2698 9.01728 25.6771 9.26696C26.5041 9.77165 27.3258 10.3507 28.0075 11.0431C28.3316 11.3707 28.6008 11.7461 28.8947 12.1003C29.217 12.4863 29.5481 12.8618 29.8474 13.2673C30.4318 14.0606 30.9666 14.8663 31.4093 15.7482C31.8626 16.6549 32.2504 17.5863 32.5975 18.539C32.7693 19.0083 32.9198 19.4794 32.9818 19.977C33.042 20.4604 33.1164 20.9438 33.173 21.4273C33.2315 21.9231 33.2758 22.4278 33.3005 22.9254C33.3236 23.4248 33.2864 23.9242 33.3129 24.4235C33.3395 24.9282 33.4546 25.4223 33.4227 25.9287C33.4033 26.2493 33.9026 26.2475 33.9239 25.9287C33.9575 25.3957 33.8283 24.8751 33.8105 24.3438Z" fill="white"></path></g></g><defs><clipPath id="clip0_162_220"><rect width="34" height="34" fill="white"></rect></clipPath></defs></svg>