<svg xmlns="http://www.w3.org/2000/svg" width="73" height="12" viewBox="0 0 73 12" fill="none"><mask id="mask0_198_818" style="mask-type:luminance" maskUnits="userSpaceOnUse" x="0" y="0" width="73" height="12"><path d="M0.733398 0.835693H72.2001V11.2379H0.733398V0.835693Z" fill="white"></path></mask><g mask="url(#mask0_198_818)"><path d="M71.4406 9.64173C70.8562 10.1127 70.1825 10.3044 69.4827 10.4002C68.7494 10.4961 67.9975 10.5669 67.2568 10.5753C66.5235 10.5836 65.794 10.5169 65.0644 10.4419C64.387 10.3752 63.7095 10.3836 63.0321 10.321C61.8633 10.2085 60.7839 9.75009 59.9203 8.80405C59.0828 7.88302 58.5505 6.7161 58.3458 5.39915C58.1783 4.30725 58.1858 3.19868 58.2528 2.09844C56.9388 3.36121 55.7924 4.87404 54.3817 5.99928C53.7228 6.52023 52.9411 6.74944 52.219 7.12036C51.4634 7.50794 50.786 8.09557 50.0415 8.52066C48.4819 9.40418 46.7958 10.146 45.0351 10.1002C44.1567 10.0793 43.3118 9.85428 42.5003 9.47086C41.8266 9.15413 41.2087 8.77905 40.7806 8.07473C39.9618 6.72861 39.9841 5.04074 40.2372 3.47374C38.7185 4.32392 37.4828 5.64087 36.2358 6.95365C35.6477 7.57462 35.0261 8.19142 34.3189 8.61234C33.6042 9.03744 32.8263 9.27499 32.0446 9.46253C31.2071 9.66674 30.3622 9.88345 29.5098 9.9668C28.6015 10.0543 27.697 9.99181 26.8 9.83344C26.0816 9.70425 25.3446 9.55005 24.7565 9.01243C24.1981 8.50399 23.7366 7.74549 23.5021 6.97032C23.1299 5.73256 23.5282 4.56564 24.0232 3.45707C23.0666 4.26558 22.1174 5.08242 21.0752 5.74923C19.8208 6.55357 18.5553 7.37458 17.245 8.05389C16.6123 8.37896 15.9534 8.65402 15.3504 9.05827C14.8181 9.41669 14.3194 9.83761 13.7759 10.1668C12.5923 10.8795 11.1257 11.0587 9.81176 11.1754C9.10454 11.2421 8.43454 11.2046 7.7422 11.017C7.04987 10.8253 6.37615 10.5461 5.68381 10.3711C5.28926 10.2669 5.45676 9.56672 5.84759 9.66674C6.62182 9.86678 7.36626 10.1877 8.13676 10.3752C8.89609 10.5544 9.65915 10.4836 10.4185 10.3794C11.122 10.2877 11.8218 10.1418 12.5104 9.95013C13.1245 9.7751 13.6531 9.43335 14.1854 9.04577C14.7065 8.66235 15.2239 8.27894 15.7934 7.99555C16.4373 7.67464 17.0813 7.35791 17.7103 7.00366C18.3356 6.65359 18.9312 6.2535 19.5416 5.87425C20.1595 5.49501 20.7849 5.12409 21.3841 4.70317C22.5641 3.87799 23.6324 2.8611 24.7602 1.94841C25.0394 1.72336 25.3148 2.14845 25.1883 2.44852C24.8235 3.30287 24.3619 4.12388 24.1088 5.03657C23.8557 5.95761 24.012 6.82029 24.4885 7.60379C24.9091 8.30395 25.4265 8.75821 26.1449 8.95825C26.9154 9.1708 27.7231 9.27082 28.5159 9.27916C29.3609 9.29166 30.176 9.15413 31.0024 8.96242C31.7282 8.79572 32.4578 8.64569 33.165 8.37896C34.6799 7.808 35.7296 6.46605 36.8909 5.27413C38.0001 4.13638 39.2136 3.14867 40.5908 2.50686C40.8253 2.39851 41.0263 2.71107 40.9742 2.95279C40.6206 4.674 40.3786 7.1787 41.8713 8.31228C43.1889 9.30833 44.957 9.58339 46.4831 9.24581C48.0539 8.89574 49.6098 8.06639 50.9684 7.10369C51.6049 6.64942 52.2488 6.32435 52.9449 6.01178C53.6744 5.68671 54.2663 5.22411 54.8618 4.64066C56.079 3.4404 57.1845 2.09427 58.4649 0.985702C58.651 0.827334 58.96 1.03988 58.9377 1.29827C58.8223 2.70691 58.7367 4.16555 59.0121 5.55335C59.2466 6.74111 59.7975 7.7705 60.6127 8.5415C61.5358 9.41669 62.6562 9.59172 63.81 9.63757C65.1314 9.68758 66.4491 9.91263 67.7742 9.82927C68.8909 9.76259 70.1713 9.77926 71.1242 9.01243C71.4555 8.74571 71.7682 9.37501 71.4406 9.64173ZM2.64648 8.82489C2.32265 8.62901 1.99881 8.43731 1.67498 8.24143C1.52981 8.15391 1.32881 8.19142 1.24693 8.37063C1.17248 8.53733 1.20226 8.77488 1.35859 8.87073C1.68243 9.06244 2.00626 9.25832 2.33381 9.45419C2.47898 9.54171 2.67998 9.5042 2.76187 9.325C2.83631 9.1583 2.80281 8.92074 2.64648 8.82489Z" fill="white"></path></g></svg>