<svg xmlns="http://www.w3.org/2000/svg" width="83" height="57" viewBox="0 0 83 57" fill="none"><mask id="mask0_162_176" style="mask-type:luminance" maskUnits="userSpaceOnUse" x="0" y="1" width="83" height="56"><path d="M0 1.95166H83V56.6717H0V1.95166Z" fill="white"></path></mask><g mask="url(#mask0_162_176)"><path d="M82.5677 23.4864C80.9812 24.9157 79.3514 26.2889 77.5747 27.485C75.7807 28.6985 73.8743 29.7391 71.8944 30.6287C69.8324 31.5528 67.6925 32.2955 65.5267 32.9475C64.446 33.2714 63.3566 33.5694 62.2629 33.8544C61.2038 34.1264 60.1318 34.3639 59.0899 34.718C58.5279 34.9123 57.9703 35.1369 57.4429 35.4219C56.9328 35.6982 56.4616 36.048 55.9601 36.346C55.1474 36.8296 53.9284 37.2096 53.1762 36.3848C53.2497 36.0869 53.3015 35.7846 53.3145 35.4823C53.3232 35.2535 52.986 35.2146 52.9254 35.4305C52.705 36.1862 52.4932 36.9332 52.1516 37.6501C51.8101 38.3625 51.3951 39.0362 50.9542 39.6926C50.0204 41.0744 49.0002 42.3914 48.2178 43.8639C47.4137 45.3969 46.7221 46.9903 46.0304 48.5751C45.3431 50.1555 44.6644 51.7403 44.0289 53.3423C43.7176 54.1369 43.4194 55.0566 42.6931 55.5835C42.1225 55.998 41.2752 56.0369 40.8343 55.4237C40.8602 55.3676 40.8905 55.3157 40.9121 55.2596C41.1758 54.6205 41.232 53.9382 41.2536 53.2516C41.2709 52.6903 41.2752 52.1332 41.2752 51.5805C41.4611 50.7687 41.5864 49.9482 41.7377 49.1278C41.9107 48.2037 42.1225 47.2882 42.3257 46.3685C42.7363 44.5332 43.2119 42.7066 43.7047 40.893C44.1888 39.1182 44.66 37.3391 45.1961 35.586C45.7062 33.9191 46.32 32.2955 47.176 30.7755C48.6847 28.0939 50.7164 25.68 51.7756 22.7566C52.0263 22.0571 52.2165 21.336 52.3159 20.5975C52.4283 19.79 52.4543 18.9221 52.009 18.201C51.581 17.51 50.8634 17.0005 50.2279 16.5082C49.532 15.9771 48.81 15.4805 48.0795 14.9969C45.3863 13.2091 42.5029 11.4646 40.8213 8.60596C40.6959 8.39436 40.4193 8.03596 40.4149 7.78118C40.4149 7.72505 40.4279 7.67323 40.4409 7.62141C40.7391 6.36482 41.0288 5.2205 40.7348 3.92937C41.0374 3.54505 41.6859 3.56232 42.0793 3.81277C42.6672 4.18845 42.9395 4.89232 43.2551 5.47959C43.5879 6.10573 44.0202 6.61959 44.6471 6.96936C45.2479 7.30186 45.918 7.48755 46.5664 7.69914C49.506 8.65777 52.2122 10.1994 55.1474 11.158C56.6864 11.6589 58.2643 11.9353 59.8767 12.0778C61.5237 12.2246 63.1794 12.2678 64.8178 12.5139C66.4 12.7471 67.9433 13.1875 69.3914 13.8569C70.6667 14.4485 72.184 15.5539 73.5458 14.5305C74.1683 14.0598 74.6524 13.3862 75.1669 12.8032C75.7418 12.1555 76.3081 11.5035 76.8831 10.8557C78.02 9.57323 79.1828 8.308 80.2809 6.99096C80.5619 6.66277 80.8342 6.32595 81.1109 5.98914C81.2881 5.77323 80.9941 5.46232 80.791 5.67391C78.3917 8.17846 76.1352 10.8255 73.8224 13.4121C73.3426 13.9475 72.8325 14.4398 72.05 14.3319C71.2849 14.2282 70.6019 13.7662 69.9188 13.438C68.4879 12.7514 66.9706 12.2635 65.4057 12C63.7457 11.715 62.0641 11.6503 60.3911 11.5207C58.7657 11.3955 57.1706 11.1666 55.61 10.6873C52.6315 9.77618 49.8908 8.25187 46.9296 7.29755C46.2638 7.08164 45.5678 6.92186 44.9453 6.598C44.6341 6.43391 44.3445 6.22664 44.111 5.95891C43.8733 5.68686 43.7047 5.363 43.5361 5.04777C43.2291 4.45618 42.8963 3.83868 42.317 3.46732C41.8372 3.16505 41.206 3.11755 40.7262 3.44573C40.6916 3.47164 40.6613 3.49755 40.6268 3.52777C40.5489 3.26868 40.4538 3.00959 40.3501 2.75914C40.2161 2.44391 40.0215 2.16755 39.6671 2.09846C38.9624 1.96027 38.3399 2.6555 37.8514 3.05277C37.2678 3.52777 36.6756 3.98982 36.0618 4.42595C33.5847 6.18777 30.857 7.61277 27.9909 8.6405C25.1204 9.66823 22.116 10.303 19.0684 10.5016C17.3651 10.6139 15.6576 10.6657 14.0149 11.1666C12.4457 11.6416 10.9845 12.4016 9.45852 12.9932C8.73227 13.2739 7.88931 13.6496 7.08957 13.5632C6.31144 13.4769 5.65868 12.9241 5.06212 12.4621C3.73931 11.43 2.4554 10.3375 1.21905 9.19755C0.916442 8.91687 0.605192 8.63618 0.298265 8.35118C0.1729 8.23891 -1.62617e-05 8.41164 0.112379 8.54118C1.20176 9.79777 2.42514 10.9378 3.69175 12.0173C4.29696 12.5355 4.91946 13.0623 5.58519 13.5071C6.23363 13.9475 6.93826 14.185 7.72936 14.0728C8.5291 13.9605 9.3029 13.6237 10.0464 13.3214C10.79 13.0148 11.5249 12.6823 12.2684 12.3714C13.012 12.0605 13.7598 11.7755 14.538 11.5682C15.3593 11.3437 16.2066 11.2314 17.0539 11.1623C18.6404 11.0371 20.2269 10.9853 21.8048 10.7607C23.2962 10.5448 24.766 10.2296 26.2141 9.81505C29.1019 8.98596 31.8815 7.76391 34.4407 6.18777C35.7073 5.4105 36.9263 4.54255 38.0719 3.59255C38.3572 3.35936 38.6209 3.10027 38.9149 2.87573C39.1397 2.70732 39.5417 2.44391 39.7708 2.73754C39.9999 3.03118 40.095 3.49323 40.1815 3.84732C40.2766 4.24459 40.3241 4.6505 40.3458 5.05641C40.3976 6.24823 40.0432 7.47459 39.4985 8.52823C38.9927 9.50845 38.2881 10.3635 37.4667 11.1019C35.8413 12.5614 33.8268 13.533 31.9463 14.6125C31.4881 14.876 31.0299 15.1437 30.5803 15.4287C30.0918 15.7396 29.5947 16.0764 29.2272 16.5298C28.488 17.428 28.4145 18.5939 28.6004 19.6994C28.8036 20.9041 29.2618 22.0873 29.7719 23.1928C30.3209 24.3975 31.0212 25.503 31.7821 26.5825C32.6207 27.7571 33.5156 28.8971 34.2721 30.1278C34.6309 30.7064 34.9551 31.3066 35.2145 31.9328C35.3225 32.1875 35.4652 32.425 35.5776 32.6755C36.0618 33.7594 36.4508 34.8907 36.7707 36.0307C36.9177 36.5532 37.0906 37.0714 37.2419 37.5939C37.3889 38.1164 37.5099 38.6864 37.6872 39.2176C38.3399 41.7437 38.9581 44.2655 40.0086 46.6621C40.121 46.9169 40.2334 47.1673 40.3458 47.4178C40.402 47.5473 40.4538 47.6769 40.51 47.8064C40.6743 48.221 40.6786 48.6916 40.7132 49.1278C40.7348 49.4603 40.7564 49.7928 40.7694 50.1253C40.7737 50.2807 40.7781 50.4319 40.7824 50.583C40.7953 51.2178 40.7953 51.8482 40.791 52.483C40.7867 53.1048 40.8256 53.7439 40.7262 54.3614C40.6354 54.9098 40.4106 55.3935 39.9783 55.7519C39.7881 55.9116 39.5374 56.0369 39.2823 56.0326C39.0013 56.0326 38.8241 55.8426 38.6944 55.6137C38.4221 55.1344 38.301 54.5514 38.1973 54.0116C38.0849 53.4287 38.02 52.8371 37.9336 52.2455C37.7607 51.0623 37.4408 49.9526 36.9436 48.8644C36.4681 47.8237 35.8802 46.8348 35.2966 45.8503C34.726 44.8787 34.1813 43.8941 33.6885 42.8794C33.2 41.8819 32.7504 40.8714 32.2792 39.8739C31.7561 38.7555 31.2114 37.6457 30.5716 36.5878C29.9405 35.5341 29.1926 34.5755 28.3281 33.7032C28.1638 33.5391 27.9217 33.7853 28.073 33.958C28.2675 34.1782 28.4534 34.4114 28.6307 34.6446C27.8439 34.5237 27.0658 34.3898 26.292 34.1739C25.3971 33.9191 24.5239 33.6082 23.655 33.2887C21.8783 32.6453 20.0886 32.0839 18.247 31.6478C16.3882 31.2073 14.512 30.8446 12.6488 30.4085C10.777 29.968 8.93545 29.4282 7.14144 28.7287C5.12696 27.9471 3.20326 26.9582 1.21905 26.1162C1.05045 26.0428 0.903473 26.2716 1.07207 26.371C2.72342 27.3512 4.48717 28.1932 6.25957 28.936C8.03196 29.6787 9.85191 30.2789 11.7194 30.7453C13.5999 31.2203 15.5063 31.5916 17.3954 32.0235C19.2586 32.451 21.0872 32.9648 22.8855 33.6169C23.8582 33.971 24.8308 34.338 25.8251 34.636C26.8194 34.9339 27.8785 35.2189 28.9203 35.2146C28.9635 35.2146 28.9981 35.2016 29.0284 35.1844C30.0486 36.631 30.8613 38.2373 31.6135 39.8221C32.1149 40.8801 32.5948 41.9466 33.1006 43.0003C33.6063 44.0496 34.164 45.0687 34.7562 46.0705C35.3614 47.1026 35.9839 48.1303 36.4768 49.2228C36.9955 50.3714 37.2592 51.5546 37.4321 52.7939C37.5186 53.4114 37.6007 54.0289 37.752 54.6291C37.8774 55.1516 38.0416 55.7389 38.3961 56.1578C38.7722 56.6069 39.3515 56.6803 39.8746 56.4428C40.1339 56.3219 40.3458 56.1491 40.5144 55.9376C40.536 55.9419 40.5576 55.9462 40.5749 55.9462C40.6354 55.9462 40.683 55.9289 40.7262 55.903C41.0461 56.2528 41.5432 56.4212 42.0274 56.3694C42.7623 56.2916 43.3718 55.7648 43.7522 55.1646C44.2191 54.4262 44.4698 53.5496 44.7854 52.7421C45.1183 51.8828 45.4641 51.0278 45.8143 50.1771C46.5232 48.4585 47.3057 46.7744 48.127 45.1076C48.529 44.2914 48.9613 43.4969 49.4671 42.7369C49.9513 41.9985 50.4787 41.2903 50.9931 40.5691C51.5464 39.7876 52.0738 38.9801 52.4975 38.1207C52.7179 37.676 52.9298 37.2096 53.0811 36.7303C53.5998 37.3176 54.4601 37.4255 55.2123 37.2312C56.2541 36.9591 57.0841 36.1819 58.0395 35.7155C59.0424 35.2276 60.1318 34.9382 61.2125 34.6662C62.3278 34.3855 63.4388 34.1005 64.5454 33.7853C68.9505 32.5416 73.2604 30.9094 77.1165 28.4048C79.1742 27.0662 81.1498 25.5419 82.8357 23.7498C83 23.5771 82.7492 23.331 82.572 23.4907L82.5677 23.4864ZM47.2019 28.2537C47.1414 28.7719 47.0117 29.2771 46.9382 29.791C46.882 29.7564 46.8301 29.7219 46.7826 29.683C46.5535 29.5232 46.32 29.3721 46.0779 29.2382C45.6024 28.9791 45.0923 28.7891 44.552 28.7416C44.2753 28.72 44.0029 28.746 43.7393 28.8107C43.7522 28.5905 43.7393 28.3703 43.7176 28.163C43.6831 27.7744 43.6009 27.3944 43.4669 27.0316C43.3545 26.725 43.2119 26.4357 43.0389 26.1637C43.6787 24.7128 43.9165 23.1237 43.709 21.5519C43.6139 20.8307 43.4756 20.0319 42.8963 19.5266C42.8747 19.505 42.8487 19.4835 42.8228 19.4662C43.2464 18.7623 43.8516 18.188 44.673 17.985C45.1572 17.8598 45.5419 17.9764 45.7753 18.4298C45.9872 18.8487 46.065 19.3453 46.1817 19.7944C46.7394 21.975 47.2754 24.186 47.297 26.4487C47.3013 27.0532 47.2711 27.6578 47.2019 28.2537ZM36.5848 30.9785C36.5546 31.4016 36.4854 32.0019 36.4768 32.1141C36.4724 32.2437 36.4638 32.3732 36.4595 32.5028C36.4508 32.8396 36.4595 33.1764 36.494 33.5089C36.4854 33.4312 36.4292 33.3362 36.3989 33.2671C36.3687 33.1807 36.3341 33.0944 36.2995 33.0123C36.2347 32.8396 36.1655 32.6669 36.0963 32.4985C35.8845 31.9846 35.6424 31.4923 35.396 30.9914C35.2923 30.7885 35.1842 30.5855 35.0718 30.3825C34.8902 30.0457 34.6871 29.7219 34.4796 29.4023C34.6957 29.5621 34.9162 29.7175 35.141 29.8687C35.3917 30.0371 35.6511 30.1925 35.9234 30.3135C36.118 30.4041 36.3427 30.4948 36.5675 30.538C36.6064 30.5466 36.6021 30.7323 36.5891 30.9828L36.5848 30.9785ZM36.6064 29.9594C36.5675 29.955 36.5286 29.9464 36.4897 29.9378C36.3557 29.8989 36.2217 29.8557 36.0963 29.8039C35.837 29.6916 35.5906 29.5448 35.3528 29.398C34.8557 29.0871 34.3672 28.7762 33.8614 28.4912C33.5588 28.068 33.2475 27.6491 32.9363 27.2346C32.1582 26.1982 31.4016 25.1489 30.7835 24.0132C30.1696 22.8905 29.6768 21.703 29.3266 20.4723C29.0327 19.4273 28.8209 18.1837 29.4088 17.1991C29.7071 16.6896 30.1912 16.3355 30.6797 16.0203C31.1423 15.7266 31.6135 15.4503 32.089 15.1825C33.9781 14.103 35.9234 13.1098 37.5921 11.6891C38.6858 10.7521 39.6022 9.5905 40.1728 8.28209C41.3314 11.0457 43.8949 12.9285 46.3287 14.5391C47.7682 15.4935 49.2423 16.4089 50.5651 17.523C50.8721 17.7821 51.1876 18.0455 51.4211 18.3737C51.6588 18.7062 51.7756 19.0862 51.7928 19.4921C51.8361 20.265 51.6675 21.0639 51.4557 21.8023C50.7208 24.4019 49.0737 26.5998 47.6299 28.8582C47.6515 28.72 47.6688 28.5819 47.6904 28.448C47.7725 27.8435 47.8158 27.2303 47.8158 26.6171C47.8158 25.3907 47.6731 24.1557 47.4483 22.9466C47.2192 21.7116 46.9123 20.4896 46.5924 19.2762C46.467 18.8055 46.3633 18.3046 46.0607 17.9116C45.7408 17.4928 45.2566 17.3589 44.7465 17.441C43.7738 17.6007 42.8487 18.296 42.451 19.2071C41.9841 18.9307 41.4222 18.7537 40.9121 18.7321C40.1512 18.6975 39.6627 19.1898 39.4293 19.8721C39.1699 20.6278 39.0057 21.4525 38.9149 22.2471C38.8673 22.666 38.85 23.0891 38.7765 23.508C38.7074 23.8794 38.608 24.2507 38.4869 24.6135C38.2448 25.3605 37.912 26.073 37.5921 26.7898C37.2376 27.5973 36.9004 28.4178 36.7145 29.2814C36.6626 29.5103 36.6281 29.7348 36.6064 29.9594ZM36.909 32.1357C36.909 32.071 36.9134 32.0062 36.9177 31.9414C36.9652 30.741 37.0906 29.5232 37.5013 28.3875C37.5921 28.1457 37.6915 27.8996 37.7952 27.6621C38.3443 26.3753 39.0359 25.1144 39.2996 23.7282C39.4423 22.9725 39.4163 22.1996 39.5763 21.4439C39.6498 21.0812 39.7406 20.7228 39.8357 20.3687C39.9091 20.075 39.9956 19.7512 40.1988 19.5223C40.657 19.0041 41.5 19.328 42.0144 19.5828C42.2954 19.721 42.5677 19.9023 42.745 20.1657C42.9395 20.4594 43.0216 20.8135 43.0865 21.1546C43.3761 22.6487 43.2119 24.2335 42.6585 25.6498C42.5159 25.4814 42.3602 25.3216 42.1873 25.1748C42.0144 25.028 41.7766 25.2569 41.9409 25.421C42.1484 25.6369 42.3386 25.8787 42.5072 26.1378C42.5245 26.2112 42.5677 26.276 42.6239 26.3235C42.7839 26.5955 42.9222 26.8848 43.0216 27.1828C43.1297 27.498 43.2032 27.8262 43.2464 28.1587C43.2767 28.435 43.2594 28.7071 43.2551 28.9791C43.1989 29.005 43.1427 29.0353 43.0865 29.0698C42.8617 29.195 42.6542 29.3548 42.4597 29.5189C42.2954 29.6571 42.0447 29.8428 42.0058 30.063C41.9928 30.1364 42.036 30.2185 42.1225 30.2141C42.3213 30.2012 42.477 30.0414 42.6283 29.9248C42.8098 29.7866 42.9871 29.6528 43.1859 29.5405C43.2681 29.493 43.3545 29.4541 43.4366 29.4153C43.5015 29.4196 43.5663 29.4023 43.6096 29.3505C43.9078 29.2512 44.2234 29.2166 44.5476 29.2555C45.0188 29.3116 45.4641 29.493 45.8704 29.7305C46.0779 29.8514 46.2768 29.9896 46.4713 30.1278C46.5535 30.1882 46.6399 30.2573 46.7264 30.3264C46.0088 31.6046 45.4209 32.9389 44.9453 34.3337C44.7378 34.9555 44.539 35.5773 44.3574 36.2078C44.0808 36.3114 43.7609 36.2855 43.4756 36.2207C43.0389 36.1301 42.611 36.0523 42.1614 36.061C41.2838 36.0825 40.4193 36.32 39.5374 36.2855C38.7117 36.2553 37.9941 35.8753 37.5359 35.1844C36.9263 34.2775 36.8745 33.185 36.9047 32.1314L36.909 32.1357ZM40.7564 47.1716C40.7305 47.0896 40.7002 47.0119 40.67 46.9341C40.5792 46.701 40.4711 46.4764 40.3803 46.2476C40.2593 45.9539 40.1426 45.6646 40.0302 45.3666C39.7968 44.7362 39.5849 44.1014 39.3904 43.458C38.608 40.8887 38.0589 38.2546 37.2462 35.6939C37.2333 35.6594 37.2203 35.6248 37.2116 35.5903C37.6612 36.2251 38.3226 36.6698 39.1094 36.7907C40.0864 36.9332 41.0461 36.6612 42.0187 36.618C42.2911 36.605 42.5677 36.6094 42.8401 36.6526C43.1384 36.7001 43.4323 36.7907 43.7349 36.8253C43.8819 36.8426 44.0375 36.8382 44.1845 36.8166C43.9251 37.7278 43.6787 38.6389 43.4237 39.5457C42.5634 42.6462 41.7637 45.751 41.1931 48.9119C41.1931 48.9032 41.1887 48.8946 41.1887 48.8816C41.1714 48.7737 41.1671 48.6614 41.1585 48.5491C41.1498 48.4369 41.1196 48.316 41.098 48.208C41.0158 47.8539 40.8861 47.5128 40.7608 47.1716H40.7564ZM39.2521 4.42164C39.1051 4.89664 38.863 5.37164 38.6036 5.79482C38.3572 6.20073 38.0071 6.53323 37.5921 6.76209C36.8356 7.18096 35.6381 7.17232 35.1669 6.33891C35.1021 6.22664 35.2318 6.07982 35.3485 6.15323C36.0185 6.58505 36.7707 6.66277 37.4883 6.27846C37.8471 6.08845 38.1584 5.79482 38.4221 5.48823C38.7117 5.15141 38.8673 4.73686 39.0532 4.33527C39.1051 4.21868 39.291 4.30505 39.2521 4.42164ZM43.3718 6.60664C43.2681 6.72323 43.0346 6.69732 42.892 6.67141C42.7407 6.6455 42.598 6.58937 42.4553 6.52891C42.196 6.41232 41.9539 6.24391 41.7637 6.028C41.3789 5.59618 41.2017 4.96573 41.2363 4.39141C41.2449 4.26618 41.4438 4.26186 41.4395 4.39141C41.4351 4.66346 41.487 4.91391 41.6037 5.15573C41.7161 5.38891 41.8718 5.57891 42.062 5.75164C42.2306 5.91141 42.4424 6.04096 42.6585 6.12732C42.7796 6.1705 42.9049 6.20073 43.0303 6.23096C43.16 6.26118 43.3156 6.29141 43.3934 6.40368C43.4366 6.46414 43.415 6.5505 43.3675 6.60232L43.3718 6.60664Z" fill="white"></path></g></svg>