<svg xmlns="http://www.w3.org/2000/svg" width="61" height="42" viewBox="0 0 61 42" fill="none"><mask id="mask0_162_176" style="mask-type:luminance" maskUnits="userSpaceOnUse" x="0" y="1" width="61" height="41"><path d="M0 1.43799H61V41.758H0V1.43799Z" fill="white"></path></mask><g mask="url(#mask0_162_176)"><path d="M60.6823 17.3059C59.5163 18.3591 58.3185 19.3709 57.0128 20.2523C55.6943 21.1464 54.2932 21.9132 52.8381 22.5687C51.3226 23.2496 49.75 23.7968 48.1582 24.2773C47.364 24.5159 46.5633 24.7355 45.7595 24.9455C44.9812 25.1459 44.1932 25.3209 43.4276 25.5818C43.0145 25.725 42.6047 25.8905 42.2171 26.1005C41.8422 26.3041 41.4959 26.5618 41.1273 26.7814C40.5301 27.1377 39.6341 27.4177 39.0813 26.81C39.1353 26.5905 39.1734 26.3677 39.183 26.145C39.1893 25.9764 38.9415 25.9477 38.897 26.1068C38.735 26.6637 38.5793 27.2141 38.3283 27.7423C38.0773 28.2673 37.7723 28.7637 37.4483 29.2473C36.762 30.2655 36.0122 31.2359 35.4372 32.3209C34.8463 33.4505 34.3379 34.6246 33.8296 35.7923C33.3244 36.9568 32.8256 38.1246 32.3586 39.305C32.1298 39.8905 31.9106 40.5682 31.3769 40.9564C30.9575 41.2618 30.3348 41.2905 30.0107 40.8387C30.0298 40.7973 30.052 40.7591 30.0679 40.7178C30.2617 40.2468 30.303 39.7441 30.3189 39.2382C30.3316 38.8246 30.3348 38.4141 30.3348 38.0068C30.4714 37.4087 30.5635 36.8041 30.6747 36.1996C30.8018 35.5187 30.9575 34.8441 31.1068 34.1664C31.4087 32.8141 31.7581 31.4682 32.1203 30.1318C32.4762 28.8241 32.8225 27.5132 33.2164 26.2214C33.5913 24.9932 34.0425 23.7968 34.6715 22.6768C35.7803 20.7009 37.2735 18.9223 38.0519 16.7682C38.2362 16.2527 38.376 15.7214 38.4491 15.1773C38.5317 14.5823 38.5507 13.9427 38.2235 13.4114C37.909 12.9023 37.3816 12.5268 36.9145 12.1641C36.403 11.7727 35.8725 11.4068 35.3355 11.0505C33.3562 9.7332 31.2371 8.44775 30.0012 6.34138C29.9091 6.18548 29.7057 5.92138 29.7026 5.73366C29.7026 5.69229 29.7121 5.65411 29.7216 5.61593C29.9408 4.69002 30.1537 3.84684 29.9377 2.89548C30.1601 2.61229 30.6366 2.62502 30.9257 2.80957C31.3578 3.08638 31.558 3.60502 31.7899 4.03775C32.0345 4.49911 32.3522 4.87775 32.8129 5.13548C33.2545 5.38048 33.747 5.51729 34.2235 5.6732C36.384 6.37957 38.3728 7.51547 40.5301 8.22184C41.6611 8.59093 42.8207 8.79457 44.0058 8.89957C45.2163 9.00775 46.4331 9.03957 47.6372 9.22093C48.8 9.39275 49.9342 9.71729 50.9985 10.2105C51.9358 10.6464 53.0509 11.4609 54.0517 10.7068C54.5092 10.36 54.8651 9.86366 55.2431 9.43411C55.6657 8.95684 56.0819 8.47638 56.5044 7.99911C57.34 7.05411 58.1946 6.12184 59.0016 5.15138C59.2081 4.90957 59.4083 4.66138 59.6116 4.4132C59.7419 4.25411 59.5258 4.02502 59.3765 4.18093C57.6132 6.02638 55.9548 7.97684 54.2551 9.88275C53.9024 10.2773 53.5275 10.64 52.9525 10.5605C52.3901 10.4841 51.8881 10.1437 51.3862 9.90184C50.3345 9.39593 49.2194 9.03638 48.0693 8.84229C46.8493 8.63229 45.6134 8.58457 44.3839 8.48911C43.1893 8.39684 42.0169 8.2282 40.87 7.87502C38.681 7.20366 36.6667 6.08048 34.4904 5.37729C34.0012 5.2182 33.4896 5.10048 33.0321 4.86184C32.8034 4.74093 32.5905 4.5882 32.419 4.39093C32.2442 4.19047 32.1203 3.95184 31.9964 3.71957C31.7708 3.28366 31.5262 2.82866 31.1005 2.55502C30.7478 2.33229 30.284 2.29729 29.9313 2.53911C29.9059 2.5582 29.8837 2.57729 29.8582 2.59957C29.801 2.40866 29.7312 2.21775 29.6549 2.0332C29.5564 1.80093 29.4134 1.59729 29.1529 1.54638C28.6351 1.44457 28.1776 1.95684 27.8185 2.24957C27.3896 2.59957 26.9544 2.94002 26.5032 3.26138C24.6828 4.55957 22.678 5.60957 20.5716 6.36684C18.462 7.12411 16.254 7.59184 14.0141 7.7382C12.7623 7.82093 11.5074 7.85911 10.3001 8.2282C9.14683 8.5782 8.07297 9.1382 6.95146 9.57411C6.41771 9.78093 5.79818 10.0577 5.21042 9.99411C4.63855 9.93048 4.15881 9.5232 3.72037 9.18275C2.74818 8.42229 1.80459 7.61729 0.895941 6.77729C0.673546 6.57048 0.444796 6.36366 0.219223 6.15366C0.127088 6.07093 4.2215e-06 6.1982 0.082608 6.29366C0.883234 7.21957 1.78235 8.05957 2.71323 8.85502C3.15802 9.23684 3.61552 9.62502 4.1048 9.95275C4.58136 10.2773 5.09922 10.4523 5.68063 10.3696C6.26839 10.2868 6.83709 10.0387 7.38355 9.81593C7.93 9.59002 8.47011 9.34502 9.01657 9.11593C9.56303 8.88684 10.1127 8.67684 10.6845 8.52411C11.2882 8.35866 11.9109 8.27593 12.5336 8.22502C13.6996 8.13275 14.8656 8.09457 16.0252 7.92911C17.1213 7.77002 18.2015 7.53775 19.2658 7.23229C21.3881 6.62138 23.431 5.72093 25.3118 4.55957C26.2427 3.98684 27.1387 3.34729 27.9806 2.64729C28.1903 2.47547 28.3841 2.28457 28.6001 2.11911C28.7653 1.99502 29.0608 1.80093 29.2292 2.01729C29.3976 2.23366 29.4675 2.57411 29.531 2.83502C29.6009 3.12775 29.6358 3.42684 29.6517 3.72593C29.6898 4.60411 29.4293 5.50775 29.029 6.28411C28.6573 7.00638 28.1394 7.63638 27.5358 8.18048C26.3412 9.25593 24.8607 9.97184 23.4786 10.7673C23.1419 10.9614 22.8051 11.1587 22.4747 11.3687C22.1157 11.5977 21.7503 11.8459 21.4803 12.18C20.937 12.8418 20.883 13.7009 21.0196 14.5155C21.1689 15.4032 21.5057 16.275 21.8806 17.0896C22.2841 17.9773 22.7988 18.7918 23.3579 19.5873C23.9743 20.4527 24.6319 21.2927 25.1879 22.1996C25.4516 22.6259 25.6899 23.0682 25.8805 23.5296C25.96 23.7173 26.0648 23.8923 26.1474 24.0768C26.5032 24.8755 26.7892 25.7091 27.0243 26.5491C27.1323 26.9341 27.2594 27.3159 27.3706 27.7009C27.4786 28.0859 27.5676 28.5059 27.6978 28.8973C28.1776 30.7587 28.6319 32.6168 29.4039 34.3828C29.4865 34.5705 29.5691 34.755 29.6517 34.9396C29.693 35.035 29.7312 35.1305 29.7725 35.2259C29.8932 35.5314 29.8964 35.8782 29.9218 36.1996C29.9377 36.4446 29.9535 36.6896 29.9631 36.9346C29.9663 37.0491 29.9694 37.1605 29.9726 37.2718C29.9821 37.7396 29.9821 38.2041 29.979 38.6718C29.9758 39.13 30.0044 39.6009 29.9313 40.0559C29.8646 40.46 29.6994 40.8164 29.3817 41.0805C29.2419 41.1982 29.0576 41.2905 28.8702 41.2873C28.6637 41.2873 28.5334 41.1473 28.4381 40.9787C28.2379 40.6255 28.149 40.1959 28.0727 39.7982C27.9901 39.3687 27.9425 38.9328 27.8789 38.4968C27.7518 37.625 27.5167 36.8073 27.1514 36.0055C26.8019 35.2387 26.3698 34.51 25.9409 33.7846C25.5215 33.0687 25.1212 32.3432 24.759 31.5955C24.4 30.8605 24.0696 30.1159 23.7233 29.3809C23.3389 28.5568 22.9385 27.7391 22.4683 26.9596C22.0045 26.1832 21.4548 25.4768 20.8194 24.8341C20.6987 24.7132 20.5208 24.8946 20.632 25.0218C20.775 25.1841 20.9116 25.3559 21.0418 25.5277C20.4636 25.4387 19.8917 25.34 19.323 25.1809C18.6654 24.9932 18.0236 24.7641 17.385 24.5287C16.0792 24.0546 14.7639 23.6409 13.4105 23.3196C12.0443 22.995 10.6655 22.7277 9.29615 22.4064C7.92047 22.0818 6.56704 21.6841 5.24855 21.1687C3.76802 20.5927 2.35422 19.8641 0.895941 19.2437C0.772036 19.1896 0.664014 19.3582 0.787921 19.4314C2.00157 20.1537 3.29782 20.7741 4.60042 21.3214C5.90302 21.8687 7.24058 22.3109 8.61308 22.6546C9.99511 23.0046 11.3962 23.2782 12.7846 23.5964C14.1539 23.9114 15.4978 24.29 16.8195 24.7705C17.5343 25.0314 18.2492 25.3018 18.9799 25.5214C19.7106 25.7409 20.489 25.9509 21.2547 25.9477C21.2865 25.9477 21.3119 25.9382 21.3341 25.9255C22.0839 26.9914 22.6812 28.175 23.234 29.3427C23.6026 30.1223 23.9552 30.9082 24.3269 31.6846C24.6987 32.4577 25.1085 33.2087 25.5438 33.9468C25.9885 34.7073 26.446 35.4646 26.8082 36.2696C27.1895 37.1159 27.3833 37.9878 27.5104 38.9009C27.5739 39.3559 27.6343 39.8109 27.7455 40.2532C27.8376 40.6382 27.9583 41.0709 28.2189 41.3796C28.4953 41.7105 28.921 41.7646 29.3054 41.5896C29.496 41.5005 29.6517 41.3732 29.7756 41.2173C29.7915 41.2205 29.8074 41.2237 29.8201 41.2237C29.8646 41.2237 29.8995 41.2109 29.9313 41.1918C30.1664 41.4496 30.5318 41.5737 30.8876 41.5355C31.4277 41.4782 31.8757 41.09 32.1553 40.6478C32.4984 40.1037 32.6827 39.4577 32.9146 38.8628C33.1592 38.2296 33.4134 37.5996 33.6707 36.9728C34.1918 35.7064 34.7668 34.4655 35.3705 33.2373C35.6659 32.6359 35.9837 32.0505 36.3554 31.4905C36.7112 30.9464 37.0988 30.4246 37.4769 29.8932C37.8835 29.3173 38.2712 28.7223 38.5825 28.0891C38.7445 27.7614 38.9002 27.4177 39.0114 27.0646C39.3927 27.4973 40.0249 27.5768 40.5777 27.4337C41.3434 27.2332 41.9534 26.6605 42.6555 26.3168C43.3926 25.9573 44.1932 25.7441 44.9875 25.5437C45.8072 25.3368 46.6237 25.1268 47.437 24.8946C50.6745 23.9782 53.842 22.7755 56.676 20.93C58.1883 19.9437 59.6402 18.8205 60.8793 17.5C61 17.3727 60.8157 17.1914 60.6855 17.3091L60.6823 17.3059ZM34.6906 20.8187C34.6461 21.2005 34.5508 21.5727 34.4968 21.9514C34.4555 21.9259 34.4173 21.9005 34.3824 21.8718C34.214 21.7541 34.0425 21.6427 33.8645 21.5441C33.5151 21.3532 33.1402 21.2132 32.743 21.1782C32.5397 21.1623 32.3395 21.1814 32.1457 21.2291C32.1553 21.0668 32.1457 20.9046 32.1298 20.7518C32.1044 20.4655 32.0441 20.1855 31.9456 19.9182C31.863 19.6923 31.7581 19.4791 31.631 19.2787C32.1013 18.2096 32.276 17.0387 32.1235 15.8805C32.0536 15.3491 31.9519 14.7605 31.5262 14.3882C31.5103 14.3723 31.4913 14.3564 31.4722 14.3437C31.7835 13.825 32.2283 13.4018 32.832 13.2523C33.1878 13.16 33.4706 13.2459 33.6421 13.58C33.7978 13.8887 33.855 14.2546 33.9408 14.5855C34.3506 16.1923 34.7446 17.8214 34.7605 19.4887C34.7637 19.9341 34.7414 20.3796 34.6906 20.8187ZM26.8877 22.8264C26.8654 23.1382 26.8146 23.5805 26.8082 23.6632C26.8051 23.7587 26.7987 23.8541 26.7955 23.9496C26.7892 24.1977 26.7955 24.4459 26.8209 24.6909C26.8146 24.6337 26.7733 24.5637 26.751 24.5127C26.7288 24.4491 26.7034 24.3855 26.678 24.325C26.6303 24.1977 26.5795 24.0705 26.5287 23.9464C26.373 23.5677 26.1951 23.205 26.014 22.8359C25.9377 22.6864 25.8583 22.5368 25.7757 22.3873C25.6422 22.1391 25.4929 21.9005 25.3404 21.665C25.4993 21.7827 25.6613 21.8973 25.8265 22.0087C26.0108 22.1327 26.2014 22.2473 26.4016 22.3364C26.5445 22.4032 26.7097 22.47 26.875 22.5018C26.9035 22.5082 26.9004 22.645 26.8908 22.8296L26.8877 22.8264ZM26.9035 22.0755C26.875 22.0723 26.8464 22.0659 26.8178 22.0596C26.7193 22.0309 26.6208 21.9991 26.5287 21.9609C26.338 21.8782 26.1569 21.77 25.9822 21.6618C25.6168 21.4327 25.2578 21.2037 24.8861 20.9937C24.6637 20.6818 24.435 20.3732 24.2062 20.0677C23.6343 19.3041 23.0783 18.5309 22.624 17.6941C22.1729 16.8668 21.8107 15.9918 21.5533 15.085C21.3373 14.315 21.1816 13.3987 21.6137 12.6732C21.8329 12.2977 22.1888 12.0368 22.5478 11.8046C22.8877 11.5882 23.234 11.3846 23.5835 11.1873C24.9719 10.3918 26.4016 9.66002 27.6279 8.6132C28.4317 7.92275 29.1053 7.06684 29.5246 6.10275C30.3761 8.13911 32.2601 9.52638 34.0488 10.7132C35.1068 11.4164 36.1902 12.0909 37.1623 12.9118C37.3879 13.1027 37.6198 13.2968 37.7914 13.5387C37.9662 13.7837 38.0519 14.0637 38.0646 14.3627C38.0964 14.9323 37.9725 15.5209 37.8168 16.065C37.2767 17.9805 36.0663 19.6 35.0051 21.2641C35.021 21.1623 35.0337 21.0605 35.0496 20.9618C35.11 20.5164 35.1417 20.0646 35.1417 19.6127C35.1417 18.7091 35.0369 17.7991 34.8717 16.9082C34.7033 15.9982 34.4777 15.0977 34.2426 14.2037C34.1505 13.8568 34.0742 13.4877 33.8518 13.1982C33.6167 12.8896 33.2609 12.7909 32.886 12.8514C32.1712 12.9691 31.4913 13.4814 31.199 14.1527C30.8558 13.9491 30.4428 13.8187 30.0679 13.8027C29.5088 13.7773 29.1497 14.14 28.9782 14.6427C28.7876 15.1996 28.6668 15.8073 28.6001 16.3927C28.5652 16.7014 28.5525 17.0132 28.4984 17.3218C28.4476 17.5955 28.3745 17.8691 28.2856 18.1364C28.1077 18.6868 27.863 19.2118 27.6279 19.74C27.3674 20.335 27.1196 20.9396 26.983 21.5759C26.9448 21.7446 26.9194 21.91 26.9035 22.0755ZM27.1259 23.6791C27.1259 23.6314 27.1291 23.5837 27.1323 23.5359C27.1672 22.6514 27.2594 21.7541 27.5612 20.9173C27.6279 20.7391 27.701 20.5577 27.7772 20.3827C28.1807 19.4346 28.6891 18.5055 28.8829 17.4841C28.9877 16.9273 28.9687 16.3577 29.0862 15.8009C29.1402 15.5337 29.2069 15.2696 29.2768 15.0087C29.3308 14.7923 29.3944 14.5537 29.5437 14.385C29.8805 14.0032 30.5 14.2418 30.8781 14.4296C31.0846 14.5314 31.2847 14.665 31.415 14.8591C31.558 15.0755 31.6183 15.3364 31.666 15.5877C31.8789 16.6887 31.7581 17.8564 31.3515 18.9C31.2466 18.7759 31.1322 18.6582 31.0052 18.55C30.8781 18.4418 30.7033 18.6105 30.8241 18.7314C30.9766 18.8905 31.1164 19.0687 31.2403 19.2596C31.253 19.3137 31.2847 19.3614 31.326 19.3964C31.4436 19.5968 31.5453 19.81 31.6183 20.0296C31.6978 20.2618 31.7518 20.5037 31.7835 20.7487C31.8058 20.9523 31.7931 21.1527 31.7899 21.3532C31.7486 21.3723 31.7073 21.3946 31.666 21.42C31.5008 21.5123 31.3483 21.63 31.2053 21.7509C31.0846 21.8527 30.9003 21.9896 30.8717 22.1518C30.8622 22.2059 30.894 22.2664 30.9575 22.2632C31.1037 22.2537 31.218 22.1359 31.3292 22.05C31.4627 21.9482 31.5929 21.8496 31.7391 21.7668C31.7994 21.7318 31.863 21.7032 31.9233 21.6746C31.971 21.6777 32.0187 21.665 32.0504 21.6268C32.2696 21.5537 32.5016 21.5282 32.7398 21.5568C33.0862 21.5982 33.4134 21.7318 33.712 21.9068C33.8645 21.9959 34.0107 22.0977 34.1537 22.1996C34.214 22.2441 34.2776 22.295 34.3411 22.3459C33.8137 23.2877 33.3816 24.2709 33.0321 25.2987C32.8796 25.7568 32.7335 26.215 32.6001 26.6796C32.3967 26.7559 32.1616 26.7368 31.9519 26.6891C31.631 26.6223 31.3165 26.565 30.9861 26.5714C30.3412 26.5873 29.7057 26.7623 29.0576 26.7368C28.4508 26.7146 27.9234 26.4346 27.5866 25.9255C27.1387 25.2573 27.1005 24.4523 27.1228 23.6759L27.1259 23.6791ZM29.9535 34.7582C29.9345 34.6977 29.9122 34.6405 29.89 34.5832C29.8233 34.4114 29.7439 34.2459 29.6771 34.0773C29.5882 33.8609 29.5024 33.6478 29.4198 33.4282C29.2482 32.9637 29.0926 32.4959 28.9496 32.0218C28.3745 30.1287 27.971 28.1878 27.3738 26.3009C27.3642 26.2755 27.3547 26.25 27.3483 26.2246C27.6788 26.6923 28.1648 27.02 28.7431 27.1091C29.4611 27.2141 30.1664 27.0137 30.8813 26.9818C31.0814 26.9723 31.2847 26.9755 31.4849 27.0073C31.7041 27.0423 31.9202 27.1091 32.1426 27.1346C32.2506 27.1473 32.365 27.1441 32.473 27.1282C32.2823 27.7996 32.1013 28.4709 31.9138 29.1391C31.2816 31.4237 30.6938 33.7114 30.2744 36.0405C30.2744 36.0341 30.2713 36.0278 30.2713 36.0182C30.2585 35.9387 30.2554 35.8559 30.249 35.7732C30.2427 35.6905 30.2204 35.6014 30.2045 35.5218C30.1442 35.2609 30.0489 35.0096 29.9567 34.7582H29.9535ZM28.8479 3.2582C28.7399 3.6082 28.562 3.9582 28.3714 4.27002C28.1903 4.56911 27.9329 4.81411 27.6279 4.98275C27.0719 5.29138 26.1919 5.28502 25.8456 4.67093C25.7979 4.5882 25.8932 4.48002 25.979 4.53411C26.4715 4.85229 27.0243 4.90957 27.5517 4.62638C27.8154 4.48638 28.0441 4.27002 28.2379 4.04411C28.4508 3.79593 28.5652 3.49047 28.7018 3.19457C28.7399 3.10866 28.8765 3.17229 28.8479 3.2582ZM31.8757 4.8682C31.7994 4.95411 31.6279 4.93502 31.523 4.91593C31.4118 4.89684 31.307 4.85548 31.2021 4.81093C31.0115 4.72502 30.8336 4.60093 30.6938 4.44184C30.411 4.12366 30.2808 3.65911 30.3062 3.23593C30.3126 3.14366 30.4587 3.14048 30.4555 3.23593C30.4523 3.43638 30.4905 3.62093 30.5763 3.79911C30.6589 3.97093 30.7732 4.11093 30.913 4.2382C31.0369 4.35593 31.1926 4.45138 31.3515 4.51502C31.4404 4.54684 31.5326 4.56911 31.6247 4.59138C31.72 4.61366 31.8344 4.63593 31.8916 4.71866C31.9233 4.7632 31.9075 4.82684 31.8725 4.86502L31.8757 4.8682Z" fill="white"></path></g></svg>